<svg id="Layer_1" data-name="Layer 1" xmlns="http://www.w3.org/2000/svg" width="1547.9" height="845.9" viewBox="0 0 1547.9 845.9"><defs><style>.cls-1{fill:#fff;stroke:#c7c8ca;stroke-linejoin:round;stroke-width:0.97px;}</style></defs><title>map</title><path id="MA" class="cls-1" d="M1363.9,208.68l-.47-.31v.46l.47-.15Zm-4.65-4.18,1.09-.46v-.62l-1.09,1.08Zm19.19-12.06-.16-2.17L1378,189Zm-67.6-15.94-1.09.47-8.81,2.63-3.1,1.08-3.56,1.08-1.23.47v.46l.46,8,.46,7.43.47,6.81.77.46,2.79-.77,12.53-3.72.31.78,22.27-8.51.16.31,2-.77,7.11-2.79,6.81,8.2h0l.93-.77.46-2.32-.15,3.71H1352l.47,1.85,1.39,2.63h0l7.27-8.81,6,2,1.4-3.1,9.9-5.26-4.18-8.19,1.08,5.26-5.1,3.86-5.73.47-11.44-12.22-5.11-7.74,5.11-5.41-5.26-.31-2.17-5.11-.15-.31-8.82,9.59-19.49,6.5-6.34,2Z" transform="translate(142.99 0.95)"/><path id="MN" class="cls-1" d="M730,82.45l3.09,11,6.5,39.6,3.09,15.78.93,13.93,3.56,8.35.77,7.11.62,2.32-.16.47-6.18,10.21,4,6.81,7.73,54.45.31,7.11,7.74-.46,30.47-1.7,76.11-6.35,7.58-.77v-.77L874,237.61l-9.43-4.8-7.43-7.73L845.37,218l-3.72-.31-5.72-4.33L837.48,192,832.06,187l1.86-8.66,9.9-9-1.7-18.57,3.56-4h0l12.06-12.68,13.77-17.64,5.26-3.71,9.28-4.49L895.8,101l-6.5,1.24-3.87-2.94-14.85,2-2.32-2.78L855,104l-10.68-4.48-2.94-3.56-8.5.62-5.73-2.94L829,91.42,821.7,89.1h-6.5l-10.36,4.49-2-3.1-16.4-2.32-5.57-13.92-.62-4.18-7.12-2L773.74,80l-18.87,1.4-23.36.93-1.54.15Z" transform="translate(142.99 0.95)"/><path id="MT" class="cls-1" d="M581.92,81.06l-51.2-3.41L493.44,74.1l-37.13-4.33-23-3.1L396.45,61,378,57.85,336.89,50,332.56,49l-6.65,31.55,2.94,5.73,2.32,8.81-1.39,1.24,2.94,8,4,3.4L348.18,127l1.09,3.25,4.64-.31-5.42,25.37-2.16.62-2.94,8.51,15.31,1.08,1.24,7.12,8.66,21.19,1.55,1.24,6,12.37,1.55-1.24,12.84-.15,16.24,1.7,4-5.26,4.79,8.66.93.47.15-.93,2.17-15.16,52.9,6.5,42.24,4,22.27,1.86,39.76,2.32,2,.15h.46l.16-2.17.46-10.67.62-14.08.15-3.55.31-6.19,2.48-48.57,2-37.75.15-6.19-2.93-.15Z" transform="translate(142.99 0.95)"/><path id="ND" class="cls-1" d="M726.72,82.45,680,83.38l-32.64-.16-28-.62-32.79-1.23-1.71-.16-.15,6.19-2,37.75-2.48,48.57-.31,6.19,6,.31,68.22,1.85,63-.46,26.14-.78,5.26-.3-.62-2.33-.77-7.11-3.56-8.35-.93-13.93L739.56,133l-6.5-39.6-3.09-11Z" transform="translate(142.99 0.95)"/><path id="HI" class="cls-1" d="M503.34,785.53,498.55,782l-4.18,1.08.93,8.66-5.73,7.12,4.95,11.29,1.4,11.61,5.72,3.71,3.56-5.73,6.34-4.64,7.73-2,8.51-7.27-8.35-7.11-.16-4.34-15.93-8.81ZM475.19,773l-2.32-2-2.17,2.94,4.49-.93Zm-11.6-6.65.61-5.73-2.94-.46,2.33,6.19Zm9.74-9.44-2.63,1.24,1.86,5.87,4,.31,1.24,5.11,4.33,1.86,9.59-4.49-9-7.43-9.44-2.47Zm-19.8-6.34-1.39,4.17,6.65-.15,6.19,1.55L461.73,751l-8.2-.46ZM434,738.35l-3.56-3.41-6.81,5.26,4.34,8L431.1,745l8.82,1.85-.78-3.71-5.1-4.79Zm-69.3-6.81.92-2.17,2.63-1.39-3.55,3.56Zm24.59-14.08-10.83,4-1.08,2.94,4.33,3.1,6,1.54,4.33-8.5-2.79-3.1Zm-75-28.46v-.16H314Zm-82-20.27V669h.15Zm-43-7.11.15.15h0Zm-1.71-3.1ZM186.22,657h-.31v.15Zm1.08,0h0Zm-.15-.16h0v0Zm-48.57-39.91-.16-.46v.15l.16.31ZM32.61,583l-.46.47.31.15.15-.62ZM-79.54,504.92Zm3.87.15h0Zm-.78-.15Zm-66-28.93.46-.16v-.31l-.46.47Z" transform="translate(142.99 0.95)"/><path id="ID" class="cls-1" d="M332.41,49l-13.77-2.79-4.49-1.08-2-.47L294.2,125.45l.77,6.66-.62,7,.31,1.54v.16l.16,2.94,5.26,5.72-7.58,19-16.09,21-.47,3.86,4.18,9.9-14.7,60.95-.61,3.25,4.33.93,43.77,8.66,17.49,3.25,4.48.78,4.33.77,22.28,3.56,39.91,6,4.48.62.62-5.11,1.4-10.05,5.26-40.22,2.78-20,.62-5.1-.93-.47-4.79-8.66-4,5.26-16.24-1.7-12.84.15-1.55,1.24-6-12.37-1.55-1.24-8.66-21.19-1.24-7.12-15.31-1.08,2.94-8.51,2.16-.62,5.42-25.37-4.64.31L348.18,127l-11.44-19.18-4-3.4-2.94-8,1.39-1.24-2.32-8.81-2.94-5.73L332.56,49Z" transform="translate(142.99 0.95)"/><path id="WA" class="cls-1" d="M146,87.55l.16-2.62-.31.15.15,2.47ZM179,73.48l.93-1.55-1.08-.15.15,1.7ZM176,70.69l.93-3.09-.93-.31Zm11.29-4.48-.15-3.1-2.63,4,2.78-.93Zm.31-6.5.47-3.09-.31-.78-.16,3.87Zm.47-15.16-.16-1.7-.62-.16.78,1.86ZM193,34.34l-1.39-.15-2.79,4.33Zm-3.87-4.18.77-.61.16-.47-.93,1.08Zm-.77.47-.47-3.1-1.39,2.63,1.86.47Zm-.78-4.33-1.39-.62,1.08,1.54.31-.92Zm4.64,2.63v-2l-.46.77Zm1.4-2-.62-.47h-.16l.78.47Zm-8.82-3.41-.77-.62-.31-.15Zm5.72-.62L186.38,24l1.08.31Zm-3.4-.31-.77-.92-.16.15.93.77Zm3.25-1.85h-.62l.77.31-.15-.31Zm-30.32,79.35,5.57,6-.93,11.6,1.08,2.94,8.36,4.49,23.51,2.16.93,2.79,11.13.15,10.52,1.39,17.17-1.85,8.51,1.39,2.32-1.08,43.47,9.9,2.94.61-.31-1.54.62-7-.77-6.66,17.94-80.74-2.47-.47-36.2-8.51-31.56-8-35.73-9.9L195.5,15.16,198,28.62,195.66,33l-4.18-2.17,4,18.72-4.33,6.19-2,5.72v5.88L180,73.63l-3.86-2.47L172.45,73l6.81-8.81-1.7,6,3.87-4.18,3.09.62-.93-7.73,2,.31L189.78,50l-1.39-1.39-5.42,7-3.55.16,3.86-4.33,4.33-1.09-1.54-7.89-4.33-1.08-2.17-3.71L176.94,39l-14.23-6.19-12.53-9.74-3.4,9.43-.31,4,2.63,7.11-1.71,23.05-1.23,3.56,7,.62-7,5,3.71,1.85-2.94,9.9-1.39-7.73-2.63,9,3.56,4.33,3.86-.31L155,95.6l2.32,4.48Z" transform="translate(142.99 0.95)"/><path id="AZ" class="cls-1" d="M433,458.66l-52.14-6.5-28-4-39.92-6.34-4-.62v.31l-6.8,30-3.56-.15-5.42-4.8-6.8,5.72-.16,24.6-2.47,5.26v.62l-.31,3.87,5.41,14.54,4.8,6.49-8.66,5.11-3.41,6.34-5.57,13.62-2.78.61-.16,11.3,4.8,3.55L275.32,575l-5.56.31h0l-3.25,6,11.13,7,21,11.76,65,34.5,55.07,6.8h.62l4.33-45.63,1.09-11.29,11.6-119.73.62-5.57-4-.47Z" transform="translate(142.99 0.95)"/><path id="CA" class="cls-1" d="M168.12,544.52l.62,3.4v.62l-.62-4Zm-22.74-13.31,1.09,2.32.61-.15-1.7-2.17Zm27.07-.46.47,4,2.78,2Zm-18.71-22-1.71-.46,1.4.62.31-.16Zm-17.17-4.64-4.18,2.48,1.08,1.08Zm-8-2.94-.31,1.24,1.39.31-1.08-1.55Zm13.61,3.1,6.81,3.86,1.24-1.08ZM89.38,368l-.15.16.15-.16Zm16.56.78-.16-.47v.62l.16-.15Zm89.25-117.42-6-1.54L123,231.57l-24.59-7.42v.62L97,240.08l-6.49,18.1L79.64,271.64l-.31,6.81,5.26,9.43,2.63,12.38-3.71,10.05.61,10.06-1.85,4.17,6.34,13.77,4,5.26-.31,15,9.59,9.12,5.57-9.28,6,4.8,2.32-2.17-8.36,1.55-.15,7.89,1.7,9.9-4.64-4.49-2.63-6-.77,8.35,2.16,16.55,8.66,10.68-5.72,7.42.93,9.44,6.19,9.59L124,461.6l3.4,1.86L126.36,484l1.7,2.48,23.2,8.35,7.12,7.58,2.47,4.95,6.81,3.87,7.42,1.39,3.1,8.51,6.19,2.94,9.28,11,8.66,14.39-.62,13.3,4.8,6.34,63.27,6.19h0l5.56-.31,2.48-6.81-4.8-3.55.16-11.3,2.78-.61,5.57-13.62,3.41-6.34,8.66-5.11-4.8-6.49-5.41-14.54.31-3.87v-.16l-4-5.41-12.38-16.55-24-33.72-33.41-48L191,372.81l-18.26-26.3,21-89.26,1.39-5.88Z" transform="translate(142.99 0.95)"/><path id="CO" class="cls-1" d="M620.13,372l.62-30.32-7.42-.3L575.58,340l-3.71-.15-3.09-.16-45.95-2.94-30.63-2.47L454,330.58l-3.71-.47-.46,4-8.36,80.6-2.94,28.15-1.23,12.22-.31,4,4.79.46,78,6.81,34.34,2.16,34.19,1.55,5,.15,3.09.16,6.5.15,3.09.16,9.75.31h2.47v-3.1l1.7-81.83L620,377v-2.93l.15-2Z" transform="translate(142.99 0.95)"/><path id="NV" class="cls-1" d="M309.67,436.23l16.08-100.08L334,286l.93-4.95-4.48-.78-17.49-3.25-43.77-8.66-4.33-.93-4.34-.93-21.81-4.79-39.13-9.28-4.34-1.09-1.39,5.88-21,89.26L191,372.81,209.89,399l33.41,48,24,33.72,12.38,16.55,4,5.41v-.46l2.47-5.26.16-24.6,6.8-5.72,5.42,4.8,3.56.15,6.8-30v-.31l.78-4.95Z" transform="translate(142.99 0.95)"/><path id="NM" class="cls-1" d="M592.75,482.33l.16-4,.15-4,.16-4-5-.15-34.19-1.55-34.34-2.16-78-6.81-4.79-.46-.62,5.56-11.6,119.74-1.09,11.29-4.33,45.63.62.16,21.35,2,2-10.83,3.87-3.09,43.31,3.86h.31l-3.87-7.58,19.65,1.4,49,2.78,30.63,1.39,5.26-145.1,1.08.16.15-4.18Z" transform="translate(142.99 0.95)"/><path id="OR" class="cls-1" d="M98.36,224.15,123,231.57l66.21,18.26,6,1.54,4.34,1.09,39.13,9.28,21.81,4.79,4.34.93.61-3.25,14.7-60.95-4.18-9.9.47-3.86,16.09-21,7.58-19-5.26-5.72-.16-2.94v-.16l-2.94-.61-43.47-9.9-2.32,1.08-8.51-1.39-17.17,1.85-10.52-1.39-11.13-.15-.93-2.79-23.51-2.17-8.36-4.48-1.08-2.94.93-11.6-5.57-6-.47.16-1.08.77-7.73-4-4.64,1.39-3.1-1.54-3.25,13.3-2.16,3.71-9.59,23.36-2.79,12.84-1.7.16-9,21.34-6,9.13-2.17,1.55-5.57,10.82L99.75,204.5l-3.4,10.21,2,9.28v.16ZM155,97.15l-.46-1.4-.16,1.09.62.31Z" transform="translate(142.99 0.95)"/><path id="UT" class="cls-1" d="M401.4,291.44l-39.91-6-22.28-3.56-4.33-.77L334,286l-8.2,50.12L309.67,436.23l-.78,4.95,4,.62,39.92,6.34,28,4,52.14,6.5,4,.47.31-4,1.23-12.22,2.94-28.15,8.36-80.6.46-4-3.09-.31L407.74,325l-6-.78,3.87-30.16.3-2-4.48-.62Z" transform="translate(142.99 0.95)"/><path id="WY" class="cls-1" d="M575.12,271l1.24-24.13,1.54-32.49.16-4-2-.15-39.76-2.32L514,206.05l-42.24-4-52.9-6.5-2.17,15.16-.15.93-.62,5.1-2.78,20L407.9,276.9,406.5,287l-.62,5.11-.3,2-3.87,30.16,6,.78,39.45,4.79,3.09.31,3.71.47,38.21,3.71,30.63,2.47,45.95,2.94,3.09.16.15-4,.78-16.25,1.39-28.31.62-12.06.15-4,.16-4.18Z" transform="translate(142.99 0.95)"/><path id="AR" class="cls-1" d="M940.19,487.59l-16.7,2.47,6.8-10.82-2.94-6-58.93,5.73-49.82,4-7.27.46.93,4.33,6,31.25.15,7,1.7,42.08.16,7,.46.16,2.32,2.47,9.28-.31.93,13.61.31,3.87,4.8-.46,14.69-1.09,58.32-5.41h.31l-.16-3.4,1.55-1.09-2.78-5.26,5.88-24.75-2.32-2.78,8.81-9.75-.62-8.35,6.5-10.83v-.15l-.31-.31,5.57-5.11-1.55-6.18,4.33-6.81-.92-6.34,4.64-9v-.15Z" transform="translate(142.99 0.95)"/><path id="IA" class="cls-1" d="M894.09,279.84l-8.5-4.49L881,269l-1.55-9.13,1.24-4.17-4.49-5.42h0l-7.58.77-76.11,6.35L762,259.11l-7.74.46-3.25.16,2.63,17.17-2.16,8.2,3.4,5.1v1.08l1.08.16L760.9,306l4.8,7.58.31,8.66,5.26,7.27-.93,3.1,4.8,19.49v.46h0l31.71-.93,33.88-2.93L874,344.5l7.58,6.65.31.31,1.4-.62-1.09-6,5.73-3.56,2.32-15.78-2.32-1.08,1.39-8,7-1.4,7.73-5.57,3.41-9.74.15-4.95-6.19-5.88-1.85-3.71-5.88-3.72.31-.77.15-.77Z" transform="translate(142.99 0.95)"/><path id="KS" class="cls-1" d="M810.25,463.15l-3.87-65.44-7-4-.62-3.09-5.57-5,5.42-6.65-2.17-3.87-4,.15-3.71-2.63-1.55-1.23-5.26.3-57.08,2.17-26.14.62h-52l-20.88-.31-5.88-.15V377l-.16,9.13-1.7,81.83V471l6.65.15,35.89.47,84-1.24,59.87-2.79,5.88-.46-.16-4Z" transform="translate(142.99 0.95)"/><path id="MO" class="cls-1" d="M881.56,351.15,874,344.5l-33.25,4.18-33.88,2.93-31.71.93h0l-.16.93,3.87,7.43,3.56,2.47,4.17,7.43.62.62,1.55,1.23,3.71,2.63,4-.15,2.17,3.87-5.42,6.65,5.57,5,.62,3.09,7,4,3.87,65.44.16,4,.31,4,.15,4,.31,4.18.15,4,7.27-.46,49.82-4,58.93-5.73,2.94,6-6.8,10.82,16.7-2.47h.16v-1.24l.31-7.11,3.09-3.87-.93-4.33-.15-.16-.16-.15.62-2,.93.31.46,1.23-.15.47v1.39l.62.16,1.24-1.55v-.16l.15-.46,4-2.48.62-.31,1.39-12.68-.31-.62-.46-.15-11-9,1.7-3.24-3.1-8.82-5.56-4.33-10.52-4.64-6.66-5.42.78-11.14,2-10.36-11.14.62-3.4-3.56-1.55-7.12L885.59,372l-5-13.76,1.23-6.81h0l-.31-.31Z" transform="translate(142.99 0.95)"/><path id="NE" class="cls-1" d="M751.93,291l-4.79-4.8-16.87-4.95-5.41-.16-8.2,2.33-9.74-6.19-30.48.31-44.39-.47-52.45-1.7L575,275.2l-.15,4-.62,12.06-1.39,28.31L572,335.84l-.15,4,3.71.15,37.75,1.4,7.42.3L620.13,372l-.15,2,5.88.15,20.88.31h52l26.14-.62,57.08-2.17,5.26-.3-.62-.62-4.17-7.43-3.56-2.47L775,353.47l.16-.93v-.46l-4.8-19.49.93-3.1L766,322.22l-.31-8.66L760.9,306,756,291.44l-1.08-.16-2.94-.3Z" transform="translate(142.99 0.95)"/><path id="OK" class="cls-1" d="M811.18,479.39l-.31-4.18-.16-4-.3-4-5.88.46-59.87,2.79-84,1.24-35.89-.47-6.65-.15h-2.47l-9.75-.31-3.09-.16-6.5-.15-3.09-.16-.16,4-.15,4-.16,4-.15,4.18h.93l37.43.92,39.6.47.47,52.9,2.78,9.29L680,556l6.65.31,1.39-2.78,9.13,8.35,11.91,1.24,2.17,2.47,4.33-2,10.83,5.11v2.94l4-.16,4.18-3.56,7.73,5,7.27,2.63,4.95-6.8,15.78,7.42,5.88-4.79,4.79-1.86,3.87.93,14.54-4.18,7.74,3.25,7,4.49,6,1.08h.16l-.16-7L818.45,526l-.16-7-6-31.25-.93-4.33-.15-4Z" transform="translate(142.99 0.95)"/><path id="SD" class="cls-1" d="M743.27,180.83l-26.14.78-63,.46L586,180.22l-6-.31-.15,3.55-.62,14.08-.46,10.67-.16,2.17h-.46l-.16,4-1.54,32.49L575.12,271,575,275.2l4.64.15,52.44,1.7,44.4.47,30.48-.31,9.74,6.19,8.2-2.32,5.41.15,16.87,4.95,4.79,4.8,2.94.3V290.2l-3.4-5.1,2.16-8.2L751,259.73l3.25-.16-.31-7.11L746.21,198l-4-6.81L748.37,181l.16-.46-5.26.3Z" transform="translate(142.99 0.95)"/><path id="LA" class="cls-1" d="M937.87,712.67l-2,.46-.93.93,2.94-1.39Zm6.5,0-1.08-.47-.31.47Zm3.71-1.24H947l-.62.77Zm-1.85-1.08-.31-.47-.16.47Zm12.37-8.2-.46.31h.77l-.31-.31ZM980.26,693l.93-1.24-1.09,1.4.16-.16Zm3.09-4-.31.15v.16l.31-.31Zm-79.51,13.61,2.32-2.94-6.34-1.7L897,700.29l6.81,2.32ZM968,689.15l-.62-.62-.16.31.78.31Zm1.7-2.78-1.55-.46.47,1.54Zm12.68-2.63v0Zm3.1-2-.16-.16.16.31v-.15Zm-1.24-.31-.31-.16-.15.47.46-.31ZM973.45,681l1.39-.47V680l-1.39.93Zm.78-.78.77-.77-.16-.16-.61.93Zm-5.42-5.72-.31.31h.16l.15-.31Zm-57.08-86.63h-.31l-58.32,5.41-14.69,1.09-4.8.46.15,3.71,3.1,29.86,5.1,7.12.16,4.17,5,8.67,4,12.68-1.39,7.12-1.08,17.63-2.33,5.72h.31l.47,4-2.63,3.71L863.62,697l15,4.18,10.67,1.39,5.41-3.87-2.94-3.86,9.9-3.1-.3,3.41,5.1-1.24,4.18,6.5,3.55-1.24,9.29,6.34-5.73,2,13.15,3.87h5l2.94-3.56,6.34-3.4,4.49,6.5,3.09-5.88-.93-9.28,8.36,3.24.93,2.79,9.9,1.24,4.95,4-.62,3.25,7-6.5-2.63-3.4L968,697.51,963.71,695l-.16-4.64,4.8.62,3.71-7.58-4.8-6.65-2.63,6.34-6-1.08,4.18-6.81-2.79-.77-6.8,4.79-9.75.62-2.78-2.16,4.48-7.89,5.26-.16,9,2.94,6.5.62h0l-3.56-4.49-6.8-13.3,1.85-7.42L904,653.88l2-2-2.17-5.57,3.25-4.79L909,629.44l11.75-20.11-5.72-7,.31-5.1-3.56-8.36v-1.08Z" transform="translate(142.99 0.95)"/><path id="TX" class="cls-1" d="M754.56,820.49l-7.42-28v5.26Zm-1.7-49.19-5.26,9.9-.62,3.24,5.88-13.14ZM757,764l5-6.5-3.56,2.16Zm17.48-15.78-11.6,6,3.24-.62Zm1.54-2.17,3.25-2.63-1.23.31ZM592.6,486.51l-1.08-.16-5.26,145.1-30.63-1.39-49-2.78-19.65-1.4,3.87,7.58.16.16,16.7,16.71,9.59,11.29L530,671.05l9,16.4,3.4,17.17,7.27,4.8,5.73,6.34,8.2,2.94,11.91,7.58,5.41,2,7.43-7.42,2.32-7.89,3.87-7.58,12.06-4.8,4.64,2.32L624.62,704l12.22,7.58,8.35,1.55-2.32,4.33,4.8,3.1,4.49,5.41.92,5.72,2.94,3.87,6.81,16.4,6.81,5.72,5.26,8.67,6.65,6.8,2.94.93L687,791.71l7.27,4,.31,5.57,1.86-.47,12.68,15.47,6.34,1.39,8.05,4.8h12.37l9,5,10.67-2.32-4.8-4.49-4.33-13-1.7-11.29-2.47-3.72,1.08-7.58-3.25-.31-4.33-7.11,4.95,5.26,5.72-2,3.1-8.2-6.19-8.36,9.28,1.09,4.33-6.65-.62-2.33,3.87-5.1-.93,4.49,4.33-3.41-1.7-6,5.57,2.94,7.12-4-7-7.27,4.33,1.7,8,.46,10.52-2.32L802.21,730l7.11-5.88,1.09-4.33,4.33-4.48-2.32-7.43.46-4.64,7.74-3.4L820,708h4.64l-5.11,4.33,20.58-10.83,3.4-.16,2.17-9.9h.61l2.32-5.72,1.09-17.63,1.39-7.12-4-12.69-5-8.66-.16-4.17-5.1-7.12-3.1-29.86-.15-3.71-.31-3.87-.93-13.61-9.28.31-2.32-2.47-.46-.16h-.16l-6-1.08-7-4.49-7.74-3.25-14.54,4.18-3.87-.93-4.79,1.86-5.88,4.79-15.78-7.42-4.95,6.8-7.27-2.63-7.73-5-4.18,3.56-4,.16v-2.94l-10.83-5.11-4.33,2-2.17-2.47-11.91-1.24L688,553.49l-1.39,2.78L680,556l-6.19-5.87L671,540.8l-.47-52.9-39.6-.47-37.43-.92Z" transform="translate(142.99 0.95)"/><path id="CT" class="cls-1" d="M1333.11,193.21l-22.27,8.51-.31-.78L1298,204.66l-2.79.77.31,1.55,5.88,22.74,1.86,2.32-4,5,2.79,2.63h0l9-8.67,4.8-6.65.92,1.86,22.59-10.06.46-.46-.15-3.71-.93-3.25-4.8-13.46-.61-1.7-.16-.31Z" transform="translate(142.99 0.95)"/><path id="NH" class="cls-1" d="M1312.23,85.85l-2,2.48-2.32-.47-1.24,10.21v.16l3.71,13.92-.31,2.79-6.65,8.81,1.7,8.05v10l-1.24,9.28,7,25.37h0l6.34-2,19.49-6.5,8.82-9.59h0v-2.47l.46-4-1.08.46-.16-.93L1335,139.53l-.31-1.08-22.43-52.6Z" transform="translate(142.99 0.95)"/><path id="RI" class="cls-1" d="M1348.27,207.13l-.15-3.25-.47,1.24.62,2Zm3.1-2.47-2-3.87-.15,4,2.17-.15Zm-.93-4.8,1.08,2.79,1.39,2.47.93-1.86-1.39-2.63-.47-1.85h-1.54Zm-17.17-6.34.62,1.7,4.79,13.46.93,3.25.15,3.71.31-.46,7.43-5.88-1.39-10.52,3.09-.62h0l-6.81-8.2-7.11,2.79-2,.77Z" transform="translate(142.99 0.95)"/><path id="VT" class="cls-1" d="M1310.84,176.5l-7-25.37,1.24-9.28v-10l-1.7-8.05,6.65-8.81.31-2.79-3.71-13.92-2,.77-8.51,3.1-8.35,3.24-19.19,7-1.08.3,7,16.25,2.32,15.31L1285,157l7.74,25.37.31-.15,1.23-.47,3.56-1.08,3.1-1.08,8.81-2.63,1.09-.47Z" transform="translate(142.99 0.95)"/><path id="AL" class="cls-1" d="M984.59,514.35l.62,1.24,2.16,1.39.93,63.43.31,34.8,7.89,47.65.62-.16,7,1.39,1.86-13.76,3.09,7.73,5.26,4.8,10.06-5.88-1.09-.93.31.15-7-15.93,66.83-10.83,4.48-.77v-.16l-4.17-7.88-.31-11.3-3.41-6.19,1.71-12.06,2.78-3.1-11.45-20.41-20.73-63.12-.15-.31-4.64.78-24.75,4-12.38,1.54-26,3.56.16.31Z" transform="translate(142.99 0.95)"/><path id="FL" class="cls-1" d="M1201.93,817.86h-.31l.16.15.15-.15Zm-1.39-.16v.16h.15Zm.31-.15v0Zm-21,2.32h0v0Zm-.31.15v0Zm.16-.15Zm-1.55.15H1178v.16Zm43.93-9.74h-.15l.15.31Zm4.18-1.08v-.31l-.31.46.31-.16Zm-1.55-.31-.62-.62-.15.15.77.47Zm-.46,1.23-1.86-2.32,1.08,2,.78.31ZM1238.9,801v.61l.31-.3Zm2.17-1.55.46-.77-.61.61.15.16Zm.46-1.55h-.15v.16Zm-2.78-.46-.16-.16.16.16Zm1.39-2.32L1240,795v.31l.15-.15ZM1236,795l-.15-.15.15.15Zm5.26-3.55-.3.15.46.15-.16-.3Zm.62,0-.31-.31.16.46.15-.15Zm-1.08-.31-.15-.16v.31l.15-.15Zm5.72-1.09v-.15l-.31.62.31-.47Zm-6.49.62h-.31l.31.16Zm3.25-1.85h-.47l-.15.15.62-.15Zm1.23-.78Zm-13,.62v-.31l-.16.31Zm1.39-.46h-.46l.46.92Zm-3.71.15v-.93l-.77.16Zm-2.17-1.55.78.78v-.31l-.78-.47Zm22.74.93-2.78,1.24.93.15Zm-21.65-1.39h-.93v.31Zm24.44-7.73.15-.78.16-2-.31,2.79Zm.15-8.67-.62-1.54-.31.61Zm-35.73,3.87-.31.46.77.16-.46-.62Zm-2.94-1.39-1.39.46,1.08.16.31-.62Zm-3.1.31v-.47l-.15.16.15.31Zm-3.24-.16-.93.62,1.24.62-.31-1.24Zm4.33.16-.16-.47-.77-.15.93.62Zm-20.27-15.16-.93.46,1.86.62-.93-1.08Zm-3.71-4.95-1.24-1.86.47,1.39.77.47Zm4.8,3.09-2.17-4.95-1.55-.46Zm-6.19-6.19-.47-1.23-.31-.78.78,2Zm-12.84-17.17-2.79-2,1.09,1.08ZM1243.39,722l-11.29-18.87h-.62L1243.39,722Zm-78.12-30.17-.46-.15.46.31v-.16Zm-.93-1.08-.15.16.15.15v-.31Zm-1.08-1.55V689l-.16.15Zm.62-.62.46.31v-.31Zm.93-.61-.62.15h.15l.47-.15Zm-1.09-.16-.46-.46.15.15.31.31Zm-1.08-1.7h-.31l.47.15-.16-.15Zm1.08-1.86h-.61l-.16.16.77-.16Zm.62.31-.77-.77.31.15.46.62Zm-5.88-6.65-.31-.15v.15Zm-6.65,0-.46-.62.15.78.31-.16Zm-56.31-5.1,4.65-3.56-5.11,3.4.46.16Zm9.29-7.43.46-.46-1.86.77,1.4-.31ZM1046,655l-16.86,5.41,9.28-2.63Zm41.92-26.3-4.48.77-66.83,10.83,7,15.93.47.16-1.71,6.34,5-2.16,5.41-4.8,9.28-.31,10.67-3.87,7.28,1.09-1.71,2.63,13.31,4.48,11.44,5.57,2.63,6.19,8.51-1.86,20.11-16.4,7.43.31,30.32,22.9,6.18-1.24,6.5,8.66,1.24,13.77-2,8.66.93,4.34,5.41,10.82-2.47-8.5,7-.16.62,6.19-3.72,9.59,12.84,17.63,4.8.16-4-5.41,5,.61,2.94-1.85-1.24,9.9,6.65,5.26L1203,767l6,3.72,7.73,2,10.68,13.61,5.57,2.94-7.43.46,3.4,3.87,12.22-4,6-3.4,5.57-19.5L1250,736.33l-.62-3.09-14.85-24.75-12.68-17.94-7.12-14.7,6,5.1L1222,680l2.63,12.84,6.81,9.74-6.65-13,.31-6.19-20-24.29-4.79-7.58L1194,638.72l-4.33-10.82-3.4-3.87-.77-4.95-.16-.16-10.67-.62-4.18,3.25-2.32,11.91L1166,627.9,1093,637l-5.26-8.2.15-.15Z" transform="translate(142.99 0.95)"/><path id="GA" class="cls-1" d="M1187.86,596l-.16-4.64-1.08,4,1.24.62Zm1.7-7.12-.62-3.55-.47,2.16Zm-72.4-97.45-2,.46-5.88,1.24-21.66,4.48-2,.47-2.16.31-12.07,2.32-3.25.62L1055,503.83l-2.78.31.15.31,20.73,63.12L1084.52,588l-2.78,3.1L1080,603.14l3.41,6.19.31,11.3,4.17,7.88v.16l-.15.15L1093,637l73-9.12,2.17,5.56,2.32-11.91,4.18-3.25,10.67.62h0l-.93-16.7,2-3.56-1.08-6.65,2.17-6.35,3.24-3.55-2.32-2.17,5.42-6.65h-.16l-9.28-8.66-12.68-18.1-7-3.25L1135,518.22l-7.27-9.28-14.08-5.88-.77-3.09,4.33-8.51Z" transform="translate(142.99 0.95)"/><path id="MS" class="cls-1" d="M982.11,670.44l-.77.15v.16l.77-.31Zm14.39-1.86h-2.16l2,.15.15-.15Zm-17.94,1.55-.62.62.15.15.47-.77Zm14.54-1.24h-5.88l5.57.15ZM928.59,521.47v.15l-6.5,10.83.62,8.35-8.82,9.75,2.33,2.78-5.88,24.75,2.78,5.26-1.55,1.09.16,3.4v1.08l3.56,8.36-.31,5.1,5.72,7-11.76,20.11-1.85,12.07-3.25,4.79,2.17,5.57-2,2L957.36,648l-1.85,7.42,6.8,13.3,3.56,4.49v-.15l5.73-6.5,12.06-2.63,11.14,1.24,1.7-2.17v-.15l-7.89-47.65-.31-34.81L987.37,517l-2.16-1.39-.62-1.24h-.31l-7.73,1.08-13.62,1.86L932,521.16l-3.4.31Z" transform="translate(142.99 0.95)"/><path id="SC" class="cls-1" d="M1117.16,491.46h0l-4.33,8.5.77,3.1,14.08,5.88,7.27,9.28,29.86,25.06,7,3.25,12.68,18.1,9.28,8.66h0l1.55-7.12-2.47-6.8,6.65,5,3.71-2.94-6.34-5.26,7.73-.47,12.07-10.21-1.39-2.63,7.42-5.72-.77-2.78,5.41-3.41.31-7.89,8.51-15.77,5.72-7.28.62-.3L1208,477.84l-12.84,2.48-17.48-.62-8.67-4.49-51.36,16.25Z" transform="translate(142.99 0.95)"/><path id="IL" class="cls-1" d="M893.94,280.61l-.31.77,5.88,3.72,1.85,3.71,6.19,5.88-.15,4.95L904,309.38,896.26,315l-7,1.39-1.39,8.05,2.32,1.08-2.32,15.78-5.73,3.56,1.09,6-1.4.62h0l-1.23,6.81,5,13.76,17.63,14.85,1.55,7.12,3.4,3.56,11.14-.62-2,10.36-.78,11.14,6.66,5.42,10.52,4.64,5.56,4.33,3.1,8.82-1.7,3.24,11,9,.46.15-.92-.93,3.09-7.27,11.91,3.25,2.94-3.4-2.32-6.81,9.75-5.72-2.63-3.71,2.32-5.26v-.47l-.62-.15.15-13.77,3.41-2.48,5.87-13.76-1.23-6L980,380.23l2.16-8.2-10.82-76.26-1.55-1.7-4-9.13-3.25-3.4-1.39-9v-.31l-20.89,2.94-12.53,1.54-33.72,3.87Z" transform="translate(142.99 0.95)"/><path id="IN" class="cls-1" d="M1035.64,283.86,1012,288l-5.41,1.08-19.19,3.09-4,3.25-6,2.79-2.32-.16-2.79-1.39-.92-.93L982.11,372l-2.16,8.2,3.87,7.27,1.23,6-5.87,13.76-3.41,2.48-.15,13.77.62.15.61-.15,2.33-4.33h5.72l7-2.33,8.66,3.25.93-3.55,4.95-3.72,7.43,1.09,4-7.89,11,.92-.15-4.48,9.74-12.84-1.54-5.88,6.8-.15L1052,377l-2-7.58.31-.31-.31-2.62-9.28-54.77-4.17-23.35-.47-2.48-.46-2Z" transform="translate(142.99 0.95)"/><path id="KY" class="cls-1" d="M944.52,470.26l-.46-1.23-.93-.31-.62,2,.16.15,1.7-.15.15-.47ZM1050.33,369.1l-.31.3,2,7.58-8.36,6.66-6.8.15,1.54,5.88-9.74,12.84.15,4.48-11-.92-4,7.89-7.43-1.09-4.95,3.72-.93,3.55-8.66-3.24-7,2.32h-5.72l-2.33,4.33-.61.15v.47l-2.32,5.26,2.63,3.71-9.75,5.72,2.32,6.81-2.94,3.4-11.91-3.25-3.09,7.27.92.93.31.62L951,467.32l-.62.31-4,2.48-.15.46,4.48-.62L982,465.78l-1.55-6.19,5.26-.15,63-8.36,44.24-7.42.62-.47,1.09-1.23,11.6-6.19,9-11.76,1.24-4,5.88-4.64,7.42-9.44,1.08-1.54-.46-.16h-3.87l-5-2.78-8.82-10.68-3.09-10.83v-.31l-.31-.31-6.5-3.71-2.93-4.95-5.88,5.73-3.72.92-4.64-1.85-4,3.09-8.35-3.71-2.17.93-7.89-6.81-4-2-7.58.93-1.24,1.24Z" transform="translate(142.99 0.95)"/><path id="NC" class="cls-1" d="M1258.55,494.24l-1.7,1.7.31.31,1.39-2Zm1.24-9-.78,1.24.31,1.23.47-2.47Zm9.28-14.39-2.32,1.55-1.24,1.86,3.56-3.41Zm20-9.74-.92-.62-2-.16,2.94.78Zm-4.17-.93h-1.39l-2.33,1.24Zm4.79,1.7,4.49-11.14-3.09,4.64-1.4,6.5Zm6.65-14.7,2-2.93h-1.09Zm13-12.06-3.4-17.17,2.93,9,.47,8.2ZM1290.42,396l-.31.16-.47.15h.16l8.51,14.39,6.65,6.65L1290.42,396Zm-2.79.93-1.24.31h0l.31.15h2.63l-.31-.92h0l-.46.15h-.46v.31l-.31.15-.16-.15Zm-143.09,35.27-.77,2.32.15,6.65-1.7-.15-4,8.2-4.49.46-8.35,8.2-3.71-1.39-4.8,7.11-12.68,11.45-6.19,1.55-6.5,6-.31,4-5.72,3.1.15,6.8v1.55l2-.47,21.66-4.48,5.88-1.24,2-.46h.47L1169,475.21l8.67,4.49,17.48.62,12.84-2.48,34.49,21.82.62-.47,15.93-6.5.16-8.5,5.72-10.37,6.19-5.88,12.84-8.5,1.7-3.1,3.4,1.55,1.55-10.21-1.85,3.56-6.5,2.16-6.19.16,7.58-5.57-2.32-2.48,2.63-5.57-14.54-2.32-.62-.77,12.38-2.32,4,2,5.1-.46,4.18-3.1,3.09-6,2.79-.77-.47-8.51-3.55-3.4-3.56,3.24.77,8.2-2.63-10-2-.47-15.31,6.35,6.8-6.66.31-2.63,7.12-1.7,2-5.26,4.79,2.79-5.1-7.58-3.56-3.1h0L1224.05,415l-39.44,10-39.91,7.43-.16-.31Z" transform="translate(142.99 0.95)"/><path id="OH" class="cls-1" d="M1143.77,294.07l-3.87-16.71-.77-3.4-4.33-19-5.57,3.56-11.91,9.13-7.74,9.43-6,.93-11.14,6.34-6.19-3.71-18.72-2.16h0l-9.9,2.47-9.74,2.32-10.21,2.17-1.55.46.47,2.48,4.17,23.35,9.28,54.77.31,2.63,1.24-1.24,7.58-.93,4,2,7.89,6.81,2.17-.93,8.35,3.71,4-3.09,4.64,1.85,3.72-.92,5.88-5.73,2.93,4.95,6.5,3.71.31.31h0l6.65-3.24,2.32-5.11L1116.7,366l5.26-8,3.86-.62-.46-6.81,6.34-8.66,1.08,1.24,5.73-4.33,5-7.43.77-33.88.31-.15-.77-3.25Z" transform="translate(142.99 0.95)"/><path id="TN" class="cls-1" d="M1092.87,443.66l-44.24,7.42-63,8.36-5.26.15,1.55,6.19L950.71,470l-4.48.62v.16L945,472.28l-.62-.16v-1.39l-1.7.15.15.16.93,4.33-3.09,3.87-.31,7.11v1.39l-4.64,9,.92,6.34-4.33,6.81,1.55,6.18-5.57,5.11.31.31,3.4-.31,30.94-3.87,13.62-1.86,7.73-1.08h.31l-.16-.31,26-3.56,12.38-1.54,24.75-4,4.64-.78,2.78-.31,13.15-2.47,3.25-.62,12.07-2.32,2.16-.31v-1.55l-.15-6.8,5.72-3.1.31-4,6.5-6,6.19-1.55,12.68-11.45,4.8-7.11,3.71,1.39,8.35-8.2,4.49-.46,4-8.2,1.7.15-.15-6.65.77-2.32-2.47.46-8.82,2.48-10.52,2.16-26.45,5.42-2.79.46-.62.47Z" transform="translate(142.99 0.95)"/><path id="VA" class="cls-1" d="M1288.1,396.63h.46l.46-.15h0l-.31-.78-.61.93Zm-5.26-17.33v.78l.77-.47Zm2.78-5.41-.15-1.24h0Zm-.93,1.86-.31,2-.46.77.77-2.78Zm1.4-4,.15-.92-.31.92Zm.92-4.17.47-1.08-.78,2.78Zm.16-2.32.62-3.41-.78.78.16,2.63Zm2.78-15.32.31-1.39-.15.31-.16,1.08Zm-.62-3.55-2,.77-3.09,1.39-1.08,1.39.46.16-3.71,23.05,1.39,3.71,2.17-9.59,4-12.53,1.85-8.2v-.15Zm3.1-1.24-.47.15-.15.62-.77,4.8.61-1.7.78-3.87Zm-161.66,59.24-1.08,1.55-7.42,9.44-5.88,4.64-1.24,4-9,11.76-11.6,6.19-1.09,1.23,2.79-.46,26.45-5.42,10.52-2.16,8.82-2.48,2.47-.46.16.31,39.91-7.43,39.44-10,61.88-17.64h0l-.46-.77-.16-.46,1.08,1.08h0l1.24-.31-.15-.16-1.09-5.25.78.15,2.47,4.64h0l.47-.15.31-.16-.62-1.24-6.34-9.74-7.89,1.39-3.56,2.94-3.41-3.09L1257,382.4l-8-.31,15.62-1.39,8.67,5.88,2.47-3.87-7-8.82,5,.31-2.63-7.12-6.19.31-14.69-11.91h-1.86l20.73,10.21-1.39-7.11,1.39-2.32-10.52-4-9.13-.62-4.48-4-3.72,2.32-1.39-10.67,1.55.31-.31-8.66-.31-.31-.31.15-.31-.15-.77-.62-.47-.47-5-2.16-5.1-3.71-7.12-1.86-.46-.16v.16l-.93,6.5L1206,322.07l.31,9-7.89,15-4.79,5.26-3.09,9.12-9.44-3.25-4.64,21-3.71,7.12-.62,9.28-2.79,4.49-10.36,3.09-8.51,6.65-4,.62-3.87,3.4-9.75-3.56-1.7-4.79-.31-.16Z" transform="translate(142.99 0.95)"/><path id="WI" class="cls-1" d="M964.63,179.6l-3.86,4.79-2.32,7,1.08,3.87Zm-88.79-36.36,2.32-3.24-1.7,1.54Zm3.56-5.1-.77-.93-1.71,1.08,2.48-.15Zm-33.72,8.66-3.56,4,1.7,18.57-9.9,9L832.06,187l5.42,4.95-1.55,21.35,5.72,4.33,3.72.31,11.75,7.12,7.43,7.73,9.43,4.8,2.17,11.91v.77h0l4.49,5.42-1.24,4.17L881,269l4.64,6.34,8.5,4.49-.15.77h0l33.72-3.87,12.53-1.54,20.89-2.94-.62-2.32v-7.27l-4.18-7.74-1.08-9.74,2-10.83L956.13,226l3.71-10.36-1.39-1.7.31-9.59,2-7.27-2.32-2.48L954,196.15l-2.47,6.5-5.88,3.4,1.85-8.2,5.26-7,.31-3.09.16-.16-7.43-7.42V169.7l-8.35-6.81L926,162.12,914.2,159l-25.37-7.73-5-2.79-.46.47-7.89-1.09-2.63,1.55L874,138.14l-12.68,6.5-15.47,2.47-.15-.31ZM876,138.6l-.31-1.08-1.09.46Zm-5.57-1.08.46-.93-.31-.31-.15,1.24Zm11.29-2.63-.47-2.17-.46,2.63Z" transform="translate(142.99 0.95)"/><path id="WV" class="cls-1" d="M1173.31,321.3l-22,5.41-6.81-29.39h0l-.31.15-.77,33.88-5,7.43-5.73,4.33-1.08-1.24-6.34,8.66.46,6.81L1122,358l-5.26,8,1.85,5.26-2.32,5.11-6.65,3.24h0v.31l3.09,10.83,8.82,10.68,5,2.78h3.87l.46.16.31.15,1.7,4.8,9.75,3.55,3.87-3.4,4-.62,8.51-6.65,10.36-3.09,2.79-4.49.62-9.28,3.71-7.12,4.64-21,9.44,3.25,3.09-9.12,4.79-5.26,7.89-15-.31-9,14.39,6.19.93-6.5v-.16h0l-4.49-7.73-9.28-1.08-5.41,4.17v3.1l-4.64,1.08-6.81,4.8-3.56.77L1180,336.76l-3.56-16.24-3.1.78Z" transform="translate(142.99 0.95)"/><path id="DE" class="cls-1" d="M1264.27,295.77l.62,2.32,12.84,36.66,14.7-4.33-.16-.31h.31l.47.16h0l.31-.16-.31-.62-3.72-9.9-18.1-17.17.78-11.91h-3.71l-2.79,2.17-1.24,3.09Z" transform="translate(142.99 0.95)"/><path id="DC" class="cls-1" d="M1239.37,330l.77.62.31.15.31-.15.31.15,1.08.62.31.46v1.09l.31.62,2-3.72-2.16-1.23-2.63.15-.62,1.24Z" transform="translate(142.99 0.95)"/><path id="MD" class="cls-1" d="M1292.58,344.5l1.08-8.35-.92,6.18-.62,2.63-.16.31.47-.15.15-.62Zm.78-14.39-.31.16.31.93v-1.09Zm-116.95-9.59,3.56,16.24,7.11-10.05,3.56-.77,6.81-4.8,4.64-1.08V317l5.41-4.17,9.28,1.08,4.49,7.73h0l.46.16,7.12,1.86,5.1,3.71,5,2.16.47.47.62-1.24,2.63-.15,2.16,1.23-2,3.72v.15l-2.94,9,9.59,6.19,9.59.46,6.35,2.94-2.63-7.42-8.2-2.79-2-6.34,5.1,6.81,4.18.62-3.71-3.72-2.94-11,.77-6.34-3.25-7,3.4-2.79,2.48-9-.93,13.3,2.63,4.49,2.48-5.26,1.39,8.66-2.63,6.35,7.58,2.78-6.5,2.17,3.4,6.34,5.57,1.85,3.1-5.41-.31,7.58,5.26-.15,3.4,3.86h.16l1.08-1.39,3.09-1.39,2-.77-.15-.31,4-11.92v-.46l-.77-3.09v-.16l-14.7,4.33-12.84-36.66-.62-2.32-2.63.77-11,3.41-60.48,16.86-11,2.94-2.78.77Z" transform="translate(142.99 0.95)"/><path id="NJ" class="cls-1" d="M1300.94,295.15l-.78-1.85v1.85Zm1.54-5.72.47-4.64-.93,4,.46.62Zm-6.34-47.49-16.24-4-2.79-.78-2.63-.62h0L1268,250.91l2.78,3.4-.15,10.37,2.93.46,6,15.78-.31.46-7.58,11.14.77,8.51,18.26,6.19.15,7.11,4.18-5.87.62-8.51L1300,297l-1.7-6.34,3.24-7.58V266.53l-1.08-5.41-7.27.15,1.86-7.42,1.08-11.91Z" transform="translate(142.99 0.95)"/><path id="NY" class="cls-1" d="M1295.68,254.47l-2.32,3.25-.62.92Zm21.34-7.58,7.74-6.81v-.31l-7.74,7.12Zm-20.26,4.79v-5.26l-.47,2.79Zm35.89-24.75-1.86-.46-.31,1.39Zm4.17-2.78-.15,1.55.31-.93-.16-.62Zm-4.33.15-10.36,9.59-15.93,6.81-4.18,3.56-.31,3.4-4.33,3.56.62,4.64,6.65-2.63,9.74-7.89,10.83-5.72,16.4-15.47L1330,233l-3.71,1.54,6.18-10.21Zm4.8-6.49.62-.93-1.86,2.16Zm-173.88-5.73-2.47-.31,1.86,2.48.61-2.17Zm51.36-47.33.31-1.71-1.24,1.55.93.16Zm.78-11.14-.62.31-.78,1.7,1.4-2Zm-65.44,87.86,1.08,4.64,8.2,2,47-12.84,47.33-14.24,8.67,6.66,1.7,3.86,10.05,4.33.31.62,2.63.62,2.79.78,16.24,4-.31-.78,1.39,6.35,3.1-.78,1.7-7v-.15l-2.79-2.63,4-5-1.86-2.32L1295.52,207l-.31-1.55-.77-.46-.47-6.81-.46-7.43-.46-8v-.46l-.31.15L1285,157l-8.2-12.84-2.32-15.31-7-16.24-.93.46-32.33,10.83-6.49,7-7.27,13.92.3,3.09-9.59,14.55,5.88,2,1.7,11-6.8,9-20.42,12.38-3.87-1.55-15.16,2.17-14.08,8.5.78,4.49,5,4.33-2.79,13.62-11.13,13-.16.15Z" transform="translate(142.99 0.95)"/><path id="PA" class="cls-1" d="M1274.17,235.9l-10.05-4.33-1.7-3.86-8.67-6.66-47.33,14.24-47,12.84-8.2-2-1.08-4.64-2.63,2-4.18,2.94-7.58,7.74-.92.77,4.33,19,.77,3.4,3.87,16.71.77,3.25h0l6.81,29.39,22-5.41,3.1-.78,2.78-.77,11-2.94L1250.66,300l11-3.41,2.63-.77h0l1.24-3.09,2.79-2.17H1272l.46-1.39,6-6.81.62-1.08.47-.31-6-15.78-2.93-.46.15-10.37-2.78-3.4,6.49-14.39h0l-.31-.62Z" transform="translate(142.99 0.95)"/><path id="ME" class="cls-1" d="M1348.74,153.45h-.16l.31.16-.15-.16Zm11.44-32.95-1.23-1.85v.93Zm-2.16-1.7v-1.54l-.16-.93Zm5.57-6.49-.31-.16.15.46.16-.3Zm15.47-7.74-.31-2.32-.62,1.08Zm-3.87.93.15-1.7-1.85.31,1.7,1.39Zm5.72-5.11h-.62v.31Zm-7.73,2.32-1.4-.3-.15,1.39,1.55-1.09Zm7.89-4.79,1.39,1.08-.47-1.24Zm-4.18.15-1.39,2.63,1.85-.92-.46-1.71Zm-6.65.16-.62.93.46,1.39.16-2.32Zm9.12-5.11-.15-1.23-.46.77.61.46Zm-.77.62-1.39-1.24v1.09Zm-8.66,3.56-.31-1.7L1369,97Zm14.69-5.41-2.32,3.4-.15-2.48Zm11.3-10.37L1394.83,80l-.61.31Zm4.17-7-.92-.46-.16.46Zm2-12.07h-1.39l1.55.47-.16-.47Zm2.32,1.55-.46-2.78-1.24-.16ZM1402,61.57l-.31-2.94-1.08,2,1.39.93Zm-89.72,24.28,22.43,52.6.31,1.08,9.74,11.91v-.15l1.55-.47.31-8.81,2.48-3.1,1.54-8.2-1.39-1.39,2.63-8,9-4.18,5.88-7.11,2.17-12.38,9.43-.62L1377,90.65l11.76-4.49.77-7,2.79.62,7.73-6.34,3.41-8.2-7.89-7.89-8.36-1.7-3.09-6.34V45.63l-5.1,1.55-5.73-2V38.83L1357.86,5.41,1346.57-.47,1334,10.05l-3.4-.61L1327.7,4l-4,1.55L1318,34l2,9.28,1.7,18.88-4.48,14.54,3.09,2.32-3.71,7.11-4-.62-.31.31Z" transform="translate(142.99 0.95)"/><path id="MI" class="cls-1" d="M987.22,185l-.77-1.24-.16,1.55Zm2.47-2.78-1.85-2.48-.31,1.08Zm1.55-11.14-1.55-1.39V170Zm-3.87,121.12,19.19-3.09L1012,288l23.67-4.18.46,2,1.55-.46,10.21-2.17,9.74-2.32,9.9-2.47-.15-.47,5.1-10.05-.46-8.36,5.72-14.38,4.49,2.63,1.7-3.25-.46-12.38-4.18-7.73-6.19-16.4-5.41-6-2.79-.78-10,7,1.08,1.4-5.26,9.9-5.1-.93L1044,208.21l2.17-.77,4.48-10.36.47-18.26-7-15.47-15.47-2.63-1.55-2.32-14.39-4.17-6.49,8,.62,7-5,6.19L1003,185l-4.8,3.4V176.35l-4.33,9.13-5.1,8-3.41,2.63,1.7,8.51-2.16,8.81,1.24,11-1.55,5.41,11.14,21.35,1.39,8.2-1.39,15.16-7.43,17-.93.62Zm33.11-139.37-4,.3,2.47,1.86,1.55-2.16Zm-23.52,4h-1.23l1.39.62ZM1024,137.21l-1.55-2.47-.62.15,2.17,2.32ZM883.88,148.5l5,2.79L914.2,159l11.76,3.1,11.45.77,8.35,6.81v10.52l7.43,7.42v-.15l6-17.48,7.27-5.11,5.57-6.19.93,5.57,5.72-8.82,13.77-5.25,1.08-2.17,13.92,1.7,5.42,2.79,2.63-6.81,2.47,1.55,10.83-1.71-2.63-4.33-4.79-2.78.92-10.06-9.43,5.26-8.66-1.08-2.79-6.65.93-2.17-11.76,5.57-7.58.47-13.61,8.35-1.55,3.09-8.35-2-5.26,2.32-10.52-9.12-23.36-7.12-.46-2.78-15,14.38-8.51,2.17-12.06,9.12-.47.31Zm54.77-35.11-18.1,9,6,5.88,2.32-5.88,6.19-7.58,3.56-1.39ZM918.38,92.2,906,100.7l-.62,4.18,9.74-7.12Z" transform="translate(142.99 0.95)"/><path id="AK" class="cls-1" d="M1.21,830.08l-.77.31.61.15.16-.46Zm5.72.93h0v0Zm-2.78-2.63v.46l.31-.15-.31-.31Zm-1.39-.78v-.15h0Zm2.94,1.55v-.31l-.16.16.16.15Zm-.31-.31v-.15H5.08Zm0-1.86.15-.92-.62.31.47.61ZM23,834.56l-.15-.15.31.62-.16-.47Zm-11.45-5.41-1.7-1.55v3.72Zm3.87,3.4-.15-1.08-2.63-.15,2.78,1.23Zm9.28,2.17-.15.31h.31l-.16-.31Zm.62.15H25l.62.16Zm1.86.62h0Zm-3.41-2.16-1.23-.16.46.47.77-.31Zm3.87.31-.31-.16v.16Zm9.44,1.85-6,.47-1.4.62Zm18.72,7.12V842h-.31Zm8,.15.31-.31-.31-.31Zm6,1.71.31-.16h-.15l-.16.16Zm-5-2.79-.15-.62h-.31l.46.62ZM75.31,844l-.16.16h.16Zm-8.2-2.32.31-.93h-.16l-.15.93Zm26.14-2.32.16-.31-.31-.15.15.46ZM89.38,838,84,842.76l3.87-.31,4.48-3.55L89.38,838Zm9.75,1.7-1.08-.31.77.62.31-.31Zm2.17.15-1.71-.46-.31.16Zm-5.88-2.16h-1.7l2.93.77Zm7.11,1.55-.15-.31-.62.15.77.16Zm-4.64-1.86-.62-.31v1.7Zm19.8,3.87-.15-.16h-.31l.46.16Zm.31-.16v-.15l-.31-.16.31.31Zm-2.63-.93.31.62v-.15l-.31-.47Zm1.39,0-1.39-.46,1.7,1.24Zm2-1.54h0v0Zm18.4,2.32-.31-.62h-.15l.46.62Zm166.45-10.37-.31-.31.16.31Zm-187.48,4.8v-.16l-.16.16Zm192-7.58.46.62h.31ZM139,839.36l-.15.16V840l.15-.62Zm-19.18-2.78.31-1.24H120l-.15,1.24ZM317.09,824.2l-1.39.77,1.24.62.15-1.39ZM122.64,835.8l-.15-.31.15.31ZM111,832.4l-3.87.77-3.4,4.49L111,832.4Zm27.69,5.88-.93.77.93-.15v-.62Zm178.36-14.85-.31-.62-.15.31.46.31ZM123.88,834.26l-1.08-.16,1.08,1.08v-.92Zm183-8.82-.31.31.31,1.08ZM126.36,834.1l-.47.16.62.46-.15-.62Zm11.44,3.25h-.46L137,837Zm-12.68-3.25-.78-.46.31.46Zm10.36,1.7-1.39.47-.93,2.47,2.32-2.94Zm168-10.83v1.09l.62-.78-.62-.31Zm-186.25,5.88,1.24-.31h-.16l-1.08.31Zm-1.55-.93-.31-.31v.16l.31.15Zm187.8-6-.31-.15-.16.46.47-.31Zm-169.7,9.28-.31-.15-.31.46.62-.31Zm168.15-9,.16-.77-.31-.16.15.93Zm-1.24-.77-.46.62.77.15-.31-.77ZM140.28,831l-.31-.31h-.16l.47.31Zm160-10.37,1.24.47.46-.62-1.7.15Zm1.86-1.08-.47.31.78.46Zm-3.56.93-.31-.62-.31.31.62.31ZM314,814.76l-2,5.73,2-1.24ZM130.69,826.68h0Zm169.69-9.75L299,818.32l.31,1.55,1.08-2.94Zm-144,12.38v-.62l-.16.31Zm142.31-13.93,4.49,6.81,10.05,6.34-2.32-5.41-9.59-8.2-2.63.46Zm-148.5,11.45-.16-.46-.31.15.47.31Zm153.76-14.08-.62,2.32,1.09-.77-.47-1.55Zm3.25,0L307,814.3l1.39.46-1.24-2ZM155.13,824.82l-.77-.16-.78.31,1.55-.15Zm15.93,1.24-.62,1.08.31-.93.31-.15Zm2.32.15-1.39.16.77.92.62-1.08Zm-93.74-19.8,1.55.77-.31-.3-1.24-.47Zm61.41,15.32.16-.16-.16.16Zm.47-.16h.15v-.15Zm160-11.91.77,2.94,1.55-.93-2.32-2ZM145.69,819.87l.16-.16h0Zm149.13-9,.77,7.11,1.55-1.54Zm.77-2.32,3.56,4.95-.47-3.25Zm-11,1.23-.93,2.94,1.24-2-.31-.93Zm-123.76,7.58-.15-.15.15.15Zm14.7.31-.31-.46.31.62v-.16Zm109.37-10.21,6.18,10.21-.92-7-5.26-3.25Zm-100.71,5.42-.46.46.77.31-.31-.77Zm-2,.31.15-.47h-.61l.46.47Zm-1.55,0-4,2.63-4.95,6.49,2.48,2.63,11.44-8.5Zm97.61-10.06-1.08-.62v.93l1.08-.31Zm-98.54,8.2.16.62,1.08.62-1.24-1.24ZM281.2,800.22l-3.09,1.55,2.94.93.15-2.48Zm-2,0-.31-.31-.15.31Zm9.44-2.47-1.24-.47-.31.93ZM282,798.83l-1.09-.15V799l1.09-.16Zm3.4-1.24,6.34,9.29-1.7-8.51-4.64-.78Zm-102.1,10.06-3.71,2.78,1.7,1.86,4.95-3.71-2.94-.93Zm-42.07-5.88-.16-.15v.15ZM139.5,801l-.15-.78v.31Zm47.5,2-.31.15v.16L187,803Zm-1.55-.31h-.16l-.31.46.47-.46Zm3.71-1.24-.46-.31v.16l.46.15Zm1.24-.15-.47-.31v.15l.47.16Zm-2-.47h-.62V801Zm30.78-3.09.16-.47-.31.31.15.16Zm9.44-5,1.85-2.32-.62.46Zm-18.88-.31.62-.47.16-.61-.77,1.08Zm0-1.7-.61.46,1.08-.31Zm-25.36,0-.16-.62h-.15l.31.62Zm24.75-.16-.62.62-.31.62Zm17-1.85h0Zm.78,0-.31-.16v.16Zm-1.86-.16.15.16v-.16Zm-12.69.93.62-.62-.77.62Zm9.44-1.86Zm-7.58.47-3.71,6,4.79-5.57Zm-4.79.77-.47-.62-.15.31.62.31Zm11.75-1.39-.31-.16.16.16Zm4,.31v-1.08l-.31.46ZM111.66,775.94l-7.43-.31,5.11,5.41Zm105.65,11,.31,1.08.78-1.23-1.09.15Zm-6.18-.15-.47,3.4.78-2.17ZM76.85,761.09l.16-.62h0ZM209.58,784.6l.16.46.3-.15-.46-.31Zm-.77.62-.31-.93-.47.31Zm7.27-1.86v-.62l-.47.31.47.31Zm-7-.93V784l.46-1.08Zm-11.76-1.85v-.47h0ZM116.61,761.4l.31-.93-.16.15-.15.78Zm.46-1.55-.15-.16-.16.16Zm6.81-3.71V756h0Zm0-.62-.15-.31h0Zm2.79-4Zm.92.3-.62-.3v.15l.62.15Zm-.92-.61v-.31l-.31.31Zm-24.76-7.27-.31-.78-.15-.46.46,1.24Zm2.32-2.79h.16l.15.16-.31-.16Zm-4.17-.77-1.24-1.55.93,1.24.31.31Zm-2.48-2.48h-.31l.47.16-.16-.16Zm.31-1.7Zm-.31-.15h0l.31.15Zm41,12.22-1.71.15.93.47.78-.62Zm-42.7-15-1.24,4.64,3.87.62,5.11,5.26,3.09-1.39ZM123,735.1v0Zm-7.73-16.4-.31-.15.15.15Zm4.48,1.55.47-.16H120l-.31.16Zm3.1-.93h.46l1.39-.62-1.85.62Zm5.57-1.7.31-.31-.47.31Zm.77-.16.93-.46-.78.15-.15.31Zm2.32-.93-.77.16v.15l.77-.31Zm.93-.15Zm98.38-27.84-.62-.47-1.08-.46,1.7.93Zm-81.06-3.41,1.4-1.85-.78.61-.62,1.24Zm1.86-2.16.62-.93-.31.31-.31.62Zm.93-1.24,1.08-.93-.62.31-.46.62Zm48.73.31.77.77h.46Zm-24.91-10.21L170,677.09,166.11,676l-9,5.1-1.7-1.08-10.21,11.44-10.37,2.32.93,5.57,4.64,6.35,8.67,8.35-1.4,3.25,6.5,2.78-3.4.62-4.18-3.25,2.17,4.8L146,724l-8.82-8-7,1.23-11.91,4.49,5.42,6-.78,3.72,3.56,4.33,11.76,4.64,8.51-4.33,1.39,3.24L145.85,749h-7.12l-8.35,3.71-.47-2.63-4.33,1.7-2,4.49-7.11,5.41v7.89l2.78,1.24-2.17,6.65,9.29,8,5.87-2.48L131,793l1.7,2.17,7.11,1.55,2.63,2.93,6.19.47,2.94,3.09,6.34-1.85-2.94,4-2.32,8.2-18.87,12.22-2.47,2.47-3.56-1.39L122,828.22l-8.19,5.42,12.84-3.72,1.85,2.79,16.55-5.42.47,2.17L152,823l13.62-9.43,1.08.62,11.91-9.44L175.55,801l4-6.66,10.52-12.53,8-1.54,2.48,1.7-9.75,2.78-2.63,10.37.31,5.57,3.41-.31,16.39-9.9,1.24-3.72L208.19,781l4.95,1.24L216.7,780l10.21,6.19-.78,1.7,23.21,2.94,5.41-1.7,1.55,2.32L276.41,801l3.4-2,.31-11.61,2.63,5.26,13,9.44,1.09,3.87,11.29,6.34,2.94,8.2,2.78-6.34,5.73,11.13,3.86-6.34-3.09-7.89-11.91-1.24-18.25-17.48-9.91-7.27-7.58,7.43h-4.48l-10.37-6.81-10.21-.46-14.54-91.73-2.47-4.34-5.88-3.55-8.82,1.7-6.8-1.39-8.67-3.41-9.12.62L189,678.79l-7.27-1.08-1.24-2.63-3.25,3.71-.93-7Z" transform="translate(142.99 0.95)"/></svg>