<svg id="Layer_1" data-name="Layer 1" xmlns="http://www.w3.org/2000/svg" xmlns:xlink="http://www.w3.org/1999/xlink" width="3035.88" height="3035.88" viewBox="0 0 3035.88 3035.88"><defs><style>.cls-1,.cls-4{fill:none;}.cls-2{clip-path:url(#clip-path);}.cls-3{opacity:0.1;}.cls-4{stroke:#fff;stroke-miterlimit:10;stroke-width:2px;}</style><clipPath id="clip-path" transform="translate(556.94 976.94)"><rect class="cls-1" x="-0.5" y="-0.5" width="1920" height="1080"/></clipPath></defs><title>overlay</title><g class="cls-2"><g class="cls-3"><line class="cls-4" x1="1520.7" y1="0.71" x2="0.71" y2="1520.71"/><line class="cls-4" x1="1528.63" y1="8.64" x2="8.64" y2="1528.63"/><line class="cls-4" x1="1536.56" y1="16.57" x2="16.57" y2="1536.56"/><line class="cls-4" x1="1544.49" y1="24.49" x2="24.49" y2="1544.49"/><line class="cls-4" x1="1552.42" y1="32.42" x2="32.42" y2="1552.42"/><line class="cls-4" x1="1560.35" y1="40.35" x2="40.35" y2="1560.35"/><line class="cls-4" x1="1568.28" y1="48.28" x2="48.28" y2="1568.28"/><line class="cls-4" x1="1576.21" y1="56.21" x2="56.21" y2="1576.21"/><line class="cls-4" x1="1584.14" y1="64.14" x2="64.14" y2="1584.14"/><line class="cls-4" x1="1592.07" y1="72.07" x2="72.07" y2="1592.07"/><line class="cls-4" x1="1600" y1="80" x2="80" y2="1600"/><line class="cls-4" x1="1607.93" y1="87.93" x2="87.93" y2="1607.93"/><line class="cls-4" x1="1615.85" y1="95.86" x2="95.86" y2="1615.85"/><line class="cls-4" x1="1623.78" y1="103.79" x2="103.79" y2="1623.78"/><line class="cls-4" x1="1631.71" y1="111.71" x2="111.71" y2="1631.71"/><line class="cls-4" x1="1639.64" y1="119.64" x2="119.64" y2="1639.64"/><line class="cls-4" x1="1647.57" y1="127.57" x2="127.57" y2="1647.57"/><line class="cls-4" x1="1655.5" y1="135.5" x2="135.5" y2="1655.5"/><line class="cls-4" x1="1663.43" y1="143.43" x2="143.43" y2="1663.43"/><line class="cls-4" x1="1671.36" y1="151.36" x2="151.36" y2="1671.36"/><line class="cls-4" x1="1679.29" y1="159.29" x2="159.29" y2="1679.29"/><line class="cls-4" x1="1687.22" y1="167.22" x2="167.22" y2="1687.22"/><line class="cls-4" x1="1695.15" y1="175.15" x2="175.15" y2="1695.15"/><line class="cls-4" x1="1703.07" y1="183.08" x2="183.08" y2="1703.08"/><line class="cls-4" x1="1711" y1="191.01" x2="191.01" y2="1711"/><line class="cls-4" x1="1718.93" y1="198.94" x2="198.94" y2="1718.93"/><line class="cls-4" x1="1726.86" y1="206.86" x2="206.86" y2="1726.86"/><line class="cls-4" x1="1734.79" y1="214.79" x2="214.79" y2="1734.79"/><line class="cls-4" x1="1742.72" y1="222.72" x2="222.72" y2="1742.72"/><line class="cls-4" x1="1750.65" y1="230.65" x2="230.65" y2="1750.65"/><line class="cls-4" x1="1758.58" y1="238.58" x2="238.58" y2="1758.58"/><line class="cls-4" x1="1766.51" y1="246.51" x2="246.51" y2="1766.51"/><line class="cls-4" x1="1774.44" y1="254.44" x2="254.44" y2="1774.44"/><line class="cls-4" x1="1782.37" y1="262.37" x2="262.37" y2="1782.37"/><line class="cls-4" x1="1790.3" y1="270.3" x2="270.3" y2="1790.3"/><line class="cls-4" x1="1798.22" y1="278.23" x2="278.23" y2="1798.22"/><line class="cls-4" x1="1806.15" y1="286.16" x2="286.16" y2="1806.15"/><line class="cls-4" x1="1814.08" y1="294.09" x2="294.08" y2="1814.08"/><line class="cls-4" x1="1822.01" y1="302.01" x2="302.01" y2="1822.01"/><line class="cls-4" x1="1829.94" y1="309.94" x2="309.94" y2="1829.94"/><line class="cls-4" x1="1837.87" y1="317.87" x2="317.87" y2="1837.87"/><line class="cls-4" x1="1845.8" y1="325.8" x2="325.8" y2="1845.8"/><line class="cls-4" x1="1853.73" y1="333.73" x2="333.73" y2="1853.73"/><line class="cls-4" x1="1861.66" y1="341.66" x2="341.66" y2="1861.66"/><line class="cls-4" x1="1869.59" y1="349.59" x2="349.59" y2="1869.59"/><line class="cls-4" x1="1877.52" y1="357.52" x2="357.52" y2="1877.52"/><line class="cls-4" x1="1885.44" y1="365.45" x2="365.45" y2="1885.45"/><line class="cls-4" x1="1893.37" y1="373.38" x2="373.38" y2="1893.37"/><line class="cls-4" x1="1901.3" y1="381.31" x2="381.31" y2="1901.3"/><line class="cls-4" x1="1909.23" y1="389.23" x2="389.23" y2="1909.23"/><line class="cls-4" x1="1917.16" y1="397.16" x2="397.16" y2="1917.16"/><line class="cls-4" x1="1925.09" y1="405.09" x2="405.09" y2="1925.09"/><line class="cls-4" x1="1933.02" y1="413.02" x2="413.02" y2="1933.02"/><line class="cls-4" x1="1940.95" y1="420.95" x2="420.95" y2="1940.95"/><line class="cls-4" x1="1948.88" y1="428.88" x2="428.88" y2="1948.88"/><line class="cls-4" x1="1956.81" y1="436.81" x2="436.81" y2="1956.81"/><line class="cls-4" x1="1964.74" y1="444.74" x2="444.74" y2="1964.74"/><line class="cls-4" x1="1972.67" y1="452.67" x2="452.67" y2="1972.67"/><line class="cls-4" x1="1980.59" y1="460.6" x2="460.6" y2="1980.6"/><line class="cls-4" x1="1988.52" y1="468.53" x2="468.53" y2="1988.52"/><line class="cls-4" x1="1996.45" y1="476.46" x2="476.45" y2="1996.45"/><line class="cls-4" x1="2004.38" y1="484.38" x2="484.38" y2="2004.38"/><line class="cls-4" x1="2012.31" y1="492.31" x2="492.31" y2="2012.31"/><line class="cls-4" x1="2020.24" y1="500.24" x2="500.24" y2="2020.24"/><line class="cls-4" x1="2028.17" y1="508.17" x2="508.17" y2="2028.17"/><line class="cls-4" x1="2036.1" y1="516.1" x2="516.1" y2="2036.1"/><line class="cls-4" x1="2044.03" y1="524.03" x2="524.03" y2="2044.03"/><line class="cls-4" x1="2051.96" y1="531.96" x2="531.96" y2="2051.96"/><line class="cls-4" x1="2059.89" y1="539.89" x2="539.89" y2="2059.89"/><line class="cls-4" x1="2067.81" y1="547.82" x2="547.82" y2="2067.82"/><line class="cls-4" x1="2075.74" y1="555.75" x2="555.75" y2="2075.74"/><line class="cls-4" x1="2083.67" y1="563.68" x2="563.68" y2="2083.67"/><line class="cls-4" x1="2091.6" y1="571.6" x2="571.6" y2="2091.6"/><line class="cls-4" x1="2099.53" y1="579.53" x2="579.53" y2="2099.53"/><line class="cls-4" x1="2107.46" y1="587.46" x2="587.46" y2="2107.46"/><line class="cls-4" x1="2115.39" y1="595.39" x2="595.39" y2="2115.39"/><line class="cls-4" x1="2123.32" y1="603.32" x2="603.32" y2="2123.32"/><line class="cls-4" x1="2131.25" y1="611.25" x2="611.25" y2="2131.25"/><line class="cls-4" x1="2139.18" y1="619.18" x2="619.18" y2="2139.18"/><line class="cls-4" x1="2147.11" y1="627.11" x2="627.11" y2="2147.11"/><line class="cls-4" x1="2155.04" y1="635.04" x2="635.04" y2="2155.04"/><line class="cls-4" x1="2162.96" y1="642.97" x2="642.97" y2="2162.97"/><line class="cls-4" x1="2170.89" y1="650.9" x2="650.9" y2="2170.89"/><line class="cls-4" x1="2178.82" y1="658.83" x2="658.82" y2="2178.82"/><line class="cls-4" x1="2186.75" y1="666.75" x2="666.75" y2="2186.75"/><line class="cls-4" x1="2194.68" y1="674.68" x2="674.68" y2="2194.68"/><line class="cls-4" x1="2202.61" y1="682.61" x2="682.61" y2="2202.61"/><line class="cls-4" x1="2210.54" y1="690.54" x2="690.54" y2="2210.54"/><line class="cls-4" x1="2218.47" y1="698.47" x2="698.47" y2="2218.47"/><line class="cls-4" x1="2226.4" y1="706.4" x2="706.4" y2="2226.4"/><line class="cls-4" x1="2234.33" y1="714.33" x2="714.33" y2="2234.33"/><line class="cls-4" x1="2242.26" y1="722.26" x2="722.26" y2="2242.26"/><line class="cls-4" x1="2250.18" y1="730.19" x2="730.19" y2="2250.19"/><line class="cls-4" x1="2258.11" y1="738.12" x2="738.12" y2="2258.11"/><line class="cls-4" x1="2266.04" y1="746.05" x2="746.05" y2="2266.04"/><line class="cls-4" x1="2273.97" y1="753.97" x2="753.97" y2="2273.97"/><line class="cls-4" x1="2281.9" y1="761.9" x2="761.9" y2="2281.9"/><line class="cls-4" x1="2289.83" y1="769.83" x2="769.83" y2="2289.83"/><line class="cls-4" x1="2297.76" y1="777.76" x2="777.76" y2="2297.76"/><line class="cls-4" x1="2305.69" y1="785.69" x2="785.69" y2="2305.69"/><line class="cls-4" x1="2313.62" y1="793.62" x2="793.62" y2="2313.62"/><line class="cls-4" x1="2321.55" y1="801.55" x2="801.55" y2="2321.55"/><line class="cls-4" x1="2329.48" y1="809.48" x2="809.48" y2="2329.48"/><line class="cls-4" x1="2337.41" y1="817.41" x2="817.41" y2="2337.41"/><line class="cls-4" x1="2345.33" y1="825.34" x2="825.34" y2="2345.34"/><line class="cls-4" x1="2353.26" y1="833.27" x2="833.27" y2="2353.26"/><line class="cls-4" x1="2361.19" y1="841.2" x2="841.19" y2="2361.19"/><line class="cls-4" x1="2369.12" y1="849.12" x2="849.12" y2="2369.12"/><line class="cls-4" x1="2377.05" y1="857.05" x2="857.05" y2="2377.05"/><line class="cls-4" x1="2384.98" y1="864.98" x2="864.98" y2="2384.98"/><line class="cls-4" x1="2392.91" y1="872.91" x2="872.91" y2="2392.91"/><line class="cls-4" x1="2400.84" y1="880.84" x2="880.84" y2="2400.84"/><line class="cls-4" x1="2408.77" y1="888.77" x2="888.77" y2="2408.77"/><line class="cls-4" x1="2416.7" y1="896.7" x2="896.7" y2="2416.7"/><line class="cls-4" x1="2424.63" y1="904.63" x2="904.63" y2="2424.63"/><line class="cls-4" x1="2432.55" y1="912.56" x2="912.56" y2="2432.56"/><line class="cls-4" x1="2440.48" y1="920.49" x2="920.49" y2="2440.48"/><line class="cls-4" x1="2448.41" y1="928.42" x2="928.42" y2="2448.41"/><line class="cls-4" x1="2456.34" y1="936.34" x2="936.34" y2="2456.34"/><line class="cls-4" x1="2464.27" y1="944.27" x2="944.27" y2="2464.27"/><line class="cls-4" x1="2472.2" y1="952.2" x2="952.2" y2="2472.2"/><line class="cls-4" x1="2480.13" y1="960.13" x2="960.13" y2="2480.13"/><line class="cls-4" x1="2488.06" y1="968.06" x2="968.06" y2="2488.06"/><line class="cls-4" x1="2495.99" y1="975.99" x2="975.99" y2="2495.99"/><line class="cls-4" x1="2503.92" y1="983.92" x2="983.92" y2="2503.92"/><line class="cls-4" x1="2511.85" y1="991.85" x2="991.85" y2="2511.85"/><line class="cls-4" x1="2519.78" y1="999.78" x2="999.78" y2="2519.78"/><line class="cls-4" x1="2527.7" y1="1007.71" x2="1007.71" y2="2527.71"/><line class="cls-4" x1="2535.63" y1="1015.64" x2="1015.64" y2="2535.63"/><line class="cls-4" x1="2543.56" y1="1023.57" x2="1023.56" y2="2543.56"/><line class="cls-4" x1="2551.49" y1="1031.49" x2="1031.49" y2="2551.49"/><line class="cls-4" x1="2559.42" y1="1039.42" x2="1039.42" y2="2559.42"/><line class="cls-4" x1="2567.35" y1="1047.35" x2="1047.35" y2="2567.35"/><line class="cls-4" x1="2575.28" y1="1055.28" x2="1055.28" y2="2575.28"/><line class="cls-4" x1="2583.21" y1="1063.21" x2="1063.21" y2="2583.21"/><line class="cls-4" x1="2591.14" y1="1071.14" x2="1071.14" y2="2591.14"/><line class="cls-4" x1="2599.07" y1="1079.07" x2="1079.07" y2="2599.07"/><line class="cls-4" x1="2607" y1="1087" x2="1087" y2="2607"/><line class="cls-4" x1="2614.92" y1="1094.93" x2="1094.93" y2="2614.93"/><line class="cls-4" x1="2622.85" y1="1102.86" x2="1102.86" y2="2622.85"/><line class="cls-4" x1="2630.78" y1="1110.79" x2="1110.79" y2="2630.78"/><line class="cls-4" x1="2638.71" y1="1118.71" x2="1118.71" y2="2638.71"/><line class="cls-4" x1="2646.64" y1="1126.64" x2="1126.64" y2="2646.64"/><line class="cls-4" x1="2654.57" y1="1134.57" x2="1134.57" y2="2654.57"/><line class="cls-4" x1="2662.5" y1="1142.5" x2="1142.5" y2="2662.5"/><line class="cls-4" x1="2670.43" y1="1150.43" x2="1150.43" y2="2670.43"/><line class="cls-4" x1="2678.36" y1="1158.36" x2="1158.36" y2="2678.36"/><line class="cls-4" x1="2686.29" y1="1166.29" x2="1166.29" y2="2686.29"/><line class="cls-4" x1="2694.22" y1="1174.22" x2="1174.22" y2="2694.22"/><line class="cls-4" x1="2702.15" y1="1182.15" x2="1182.15" y2="2702.15"/><line class="cls-4" x1="2710.07" y1="1190.08" x2="1190.08" y2="2710.08"/><line class="cls-4" x1="2718" y1="1198.01" x2="1198.01" y2="2718"/><line class="cls-4" x1="2725.93" y1="1205.94" x2="1205.93" y2="2725.93"/><line class="cls-4" x1="2733.86" y1="1213.86" x2="1213.86" y2="2733.86"/><line class="cls-4" x1="2741.79" y1="1221.79" x2="1221.79" y2="2741.79"/><line class="cls-4" x1="2749.72" y1="1229.72" x2="1229.72" y2="2749.72"/><line class="cls-4" x1="2757.65" y1="1237.65" x2="1237.65" y2="2757.65"/><line class="cls-4" x1="2765.58" y1="1245.58" x2="1245.58" y2="2765.58"/><line class="cls-4" x1="2773.51" y1="1253.51" x2="1253.51" y2="2773.51"/><line class="cls-4" x1="2781.44" y1="1261.44" x2="1261.44" y2="2781.44"/><line class="cls-4" x1="2789.37" y1="1269.37" x2="1269.37" y2="2789.37"/><line class="cls-4" x1="2797.29" y1="1277.3" x2="1277.3" y2="2797.3"/><line class="cls-4" x1="2805.22" y1="1285.23" x2="1285.23" y2="2805.22"/><line class="cls-4" x1="2813.15" y1="1293.16" x2="1293.16" y2="2813.15"/><line class="cls-4" x1="2821.08" y1="1301.09" x2="1301.08" y2="2821.08"/><line class="cls-4" x1="2829.01" y1="1309.01" x2="1309.01" y2="2829.01"/><line class="cls-4" x1="2836.94" y1="1316.94" x2="1316.94" y2="2836.94"/><line class="cls-4" x1="2844.87" y1="1324.87" x2="1324.87" y2="2844.87"/><line class="cls-4" x1="2852.8" y1="1332.8" x2="1332.8" y2="2852.8"/><line class="cls-4" x1="2860.73" y1="1340.73" x2="1340.73" y2="2860.73"/><line class="cls-4" x1="2868.66" y1="1348.66" x2="1348.66" y2="2868.66"/><line class="cls-4" x1="2876.59" y1="1356.59" x2="1356.59" y2="2876.59"/><line class="cls-4" x1="2884.52" y1="1364.52" x2="1364.52" y2="2884.52"/><line class="cls-4" x1="2892.44" y1="1372.45" x2="1372.45" y2="2892.45"/><line class="cls-4" x1="2900.37" y1="1380.38" x2="1380.38" y2="2900.37"/><line class="cls-4" x1="2908.3" y1="1388.31" x2="1388.3" y2="2908.3"/><line class="cls-4" x1="2916.23" y1="1396.23" x2="1396.23" y2="2916.23"/><line class="cls-4" x1="2924.16" y1="1404.16" x2="1404.16" y2="2924.16"/><line class="cls-4" x1="2932.09" y1="1412.09" x2="1412.09" y2="2932.09"/><line class="cls-4" x1="2940.02" y1="1420.02" x2="1420.02" y2="2940.02"/><line class="cls-4" x1="2947.95" y1="1427.95" x2="1427.95" y2="2947.95"/><line class="cls-4" x1="2955.88" y1="1435.88" x2="1435.88" y2="2955.88"/><line class="cls-4" x1="2963.81" y1="1443.81" x2="1443.81" y2="2963.81"/><line class="cls-4" x1="2971.74" y1="1451.74" x2="1451.74" y2="2971.74"/><line class="cls-4" x1="2979.66" y1="1459.67" x2="1459.67" y2="2979.67"/><line class="cls-4" x1="2987.59" y1="1467.6" x2="1467.6" y2="2987.59"/><line class="cls-4" x1="2995.52" y1="1475.53" x2="1475.53" y2="2995.52"/><line class="cls-4" x1="3003.45" y1="1483.46" x2="1483.45" y2="3003.45"/><line class="cls-4" x1="3011.38" y1="1491.38" x2="1491.38" y2="3011.38"/><line class="cls-4" x1="3019.31" y1="1499.31" x2="1499.31" y2="3019.31"/><line class="cls-4" x1="3027.24" y1="1507.24" x2="1507.24" y2="3027.24"/><line class="cls-4" x1="3035.17" y1="1515.17" x2="1515.17" y2="3035.17"/></g></g></svg>