<?xml version="1.0" encoding="utf-8"?>
<!-- Generator: Adobe Illustrator 22.0.1, SVG Export Plug-In . SVG Version: 6.00 Build 0)  -->
<svg version="1.1" id="Layer_1" xmlns="http://www.w3.org/2000/svg" xmlns:xlink="http://www.w3.org/1999/xlink" x="0px" y="0px"
	 viewBox="0 0 82.7 88.1" style="enable-background:new 0 0 82.7 88.1;" xml:space="preserve">
<style type="text/css">
	.st0{fill:none;stroke:#EE3769;stroke-miterlimit:10;}
	.st1{fill:none;stroke:#8A8FC6;stroke-miterlimit:10;}
	.st2{fill:none;stroke:#DAB79A;stroke-miterlimit:10;}
</style>
<path class="st0" d="M16.8,25.5c0-9,9-16.3,20.1-16.3s20.1,7.3,20.1,16.3s-9,16.3-20.1,16.3S16.8,34.5,16.8,25.5"/>
<path class="st0" d="M56.7,27.3c0.1,0.6,0.1,1.2,0.1,1.9c0,9-9,16.3-20.1,16.3s-20.1-7.3-20.1-16.3c0-0.6,0-1.2,0.1-1.9"/>
<line class="st0" x1="31.6" y1="25.5" x2="43.5" y2="25.5"/>
<line class="st0" x1="37.6" y1="20.3" x2="36.8" y2="31.4"/>
<path class="st1" d="M5.6,57.1c0-6.4,6.3-11.5,14.2-11.5S34,50.8,34,57.1s-6.3,11.5-14.2,11.5S5.6,63.5,5.6,57.1"/>
<path class="st1" d="M33.9,58.5c0.1,0.4,0.1,0.9,0.1,1.3c0,6.4-6.3,11.5-14.2,11.5S5.6,66.1,5.6,59.8c0-0.4,0-0.9,0.1-1.3"/>
<line class="st1" x1="16.1" y1="57.1" x2="24.5" y2="57.1"/>
<line class="st1" x1="20.3" y1="53.5" x2="19.8" y2="61.3"/>
<path class="st2" d="M57,47.7c11.1,0,20.1,7.3,20.1,16.3s-9,16.3-20.1,16.3s-20.1-7.3-20.1-16.3"/>
<path class="st2" d="M36.9,64.1c0-9,9-16.3,20.1-16.3"/>
<path class="st2" d="M76.9,65.9c0.1,0.6,0.1,1.2,0.1,1.9c0,9-9,16.3-20.1,16.3s-20.1-7.3-20.1-16.3c0-0.6,0-1.2,0.1-1.9"/>
<line class="st2" x1="51.8" y1="64.1" x2="63.7" y2="64.1"/>
<line class="st2" x1="57.7" y1="58.9" x2="57" y2="70"/>
</svg>
