<?xml version="1.0" encoding="utf-8"?>
<!-- Generator: Adobe Illustrator 22.0.1, SVG Export Plug-In . SVG Version: 6.00 Build 0)  -->
<svg version="1.1" id="Layer_1" xmlns="http://www.w3.org/2000/svg" xmlns:xlink="http://www.w3.org/1999/xlink" x="0px" y="0px"
	 viewBox="0 0 634.4 475.6" style="enable-background:new 0 0 634.4 475.6;" xml:space="preserve">
<style type="text/css">
	.st0{fill:none;stroke:#8080BB;stroke-width:2;stroke-miterlimit:10;}
	.st1{fill:none;stroke:#FF2D67;stroke-width:2;stroke-miterlimit:10;}
	.st2{fill:none;stroke:#5263B2;stroke-width:2;stroke-miterlimit:10;}
	.st3{fill:none;stroke:#EA9A80;stroke-width:2;stroke-miterlimit:10;}
	.st4{fill:none;stroke:#FEAE8C;stroke-width:2;stroke-miterlimit:10;}
	.st5{fill:none;stroke:#FF3B23;stroke-width:2;stroke-miterlimit:10;}
	.st6{fill:none;stroke:#888FCF;stroke-width:2;stroke-miterlimit:10;}
	.st7{fill:none;stroke:#000000;stroke-width:2;stroke-miterlimit:10;}
	.st8{fill:none;stroke:#FF735B;stroke-width:2;stroke-miterlimit:10;}
	.st9{fill:none;stroke:#5263C6;stroke-width:2;stroke-miterlimit:10;}
	.st10{fill:none;stroke:#FFFFFF;stroke-width:2;stroke-miterlimit:10;}
	.st11{fill:none;stroke:#DAB799;stroke-width:2;stroke-miterlimit:10;}
	.st12{fill:none;stroke:#FF4E79;stroke-width:2;stroke-miterlimit:10;}
	.st13{fill:none;stroke:#EECBAD;stroke-width:2;stroke-miterlimit:10;}
</style>
<g>
	<line class="st0" x1="470.3" y1="272.9" x2="470.3" y2="272.9"/>
	<polyline class="st0" points="478.3,271.1 478.3,271.1 478.3,271.1 	"/>
	<line class="st0" x1="404.9" y1="287.6" x2="365.3" y2="296.5"/>
	<polyline class="st0" points="279.1,150.8 260.2,56.2 444.4,14.7 490,242.7 	"/>
	<line class="st0" x1="291.4" y1="212.2" x2="287.4" y2="192.4"/>
	<polyline class="st1" points="314.2,150.4 313.2,145.9 427.1,125.8 427.8,128.9 	"/>
	<polyline class="st1" points="323.2,190 322.1,185.5 436,165.4 437,170 	"/>
	<polyline class="st1" points="332.4,231.1 331.4,226.6 445.3,206.5 446.3,211.1 	"/>
	<polyline class="st1" points="422.3,104.5 421.1,99.2 309.6,129.9 310.6,134.5 	"/>
	<polyline class="st1" points="431.4,144.8 430.3,140.3 318.9,171 319.9,175.6 	"/>
	<polyline class="st1" points="440.6,186 439.6,181.4 328.1,212.1 329.2,216.7 	"/>
	<circle class="st2" cx="372.1" cy="87.8" r="4.7"/>
	<path class="st3" d="M301.5,94.1c-4.2,0.9-6.8,5.2-5.9,9.5c1,4.3,5.2,7,9.4,6.1l115.2-21.1l-1.5,0.3c4.2-0.9,8.4,1.8,9.4,6.1
		c1,4.3-1.7,8.6-5.9,9.5L309.2,135l1.5-0.4l0,0.1c-4.2,0.9-6.8,5.2-5.9,9.5c1,4.3,5.2,7,9.4,6.1l115.2-21.1l-1.5,0.3l0,0.1
		c4.2-0.9,8.4,1.8,9.4,6.1c1,4.3-1.7,8.6-5.9,9.5l-113.1,30.4l1.5-0.4l0,0.1c-4.2,0.9-6.8,5.2-5.9,9.5c1,4.3,5.2,7,9.4,6.1
		l115.2-21.1l-1.5,0.3l0,0.1c4.2-0.9,8.4,1.8,9.4,6.1c1,4.3-1.7,8.6-5.9,9.5l-113.1,30.4l1.5-0.4l0,0.1c-4.2,0.9-6.8,5.2-5.9,9.5
		c1,4.3,5.2,7,9.4,6.1l115.2-21.1l-1.5,0.3l0,0.1c4.2-0.9,8.4,1.8,9.4,6.1s-1.7,8.6-5.9,9.5"/>
	<polyline class="st1" points="305,109.3 303.9,104.8 417.8,84.7 418.8,89.3 	"/>
	<line class="st2" x1="348.8" y1="92.3" x2="345.4" y2="93"/>
	<line class="st2" x1="365.6" y1="89.2" x2="356.6" y2="90.9"/>
	<line class="st2" x1="354.9" y1="91.2" x2="351" y2="91.9"/>
	<line class="st2" x1="343.7" y1="93.3" x2="337.5" y2="94.4"/>
</g>
<g>
	<polyline class="st4" points="483.9,160.2 484.6,153.5 492,80.3 	"/>
	<line class="st4" x1="489.3" y1="160.8" x2="483.9" y2="160.2"/>
	<line class="st4" x1="490" y1="154" x2="493.8" y2="116.1"/>
	<g>
		<polyline class="st5" points="540.1,186.5 539.7,190.5 534.4,242.7 		"/>
		<line class="st5" x1="530" y1="185.4" x2="524.2" y2="242.7"/>
		<path class="st5" d="M525.1,291.7C525.1,291.7,525.1,291.7,525.1,291.7"/>
		<path class="st4" d="M510.9,45.8c11-13.2,28.5-20.9,47.4-19c29.6,3,51.2,28.5,48.3,56.9l-8.2,81.3l-6.8-0.7"/>
		<path class="st4" d="M492,80.3c2.9-28.4,29.2-49.1,58.7-46.1c29.6,3,51.2,28.5,48.3,56.9"/>
		<circle class="st1" cx="518.3" cy="77.4" r="5.4"/>
		<circle class="st6" cx="518.3" cy="77.4" r="16.3"/>
		<circle class="st1" cx="571.1" cy="82.8" r="5.4"/>
		<circle class="st6" cx="571.1" cy="82.8" r="16.3"/>
		<polyline class="st4" points="538.1,165.7 535.6,190.1 539.7,190.5 540.1,186.5 		"/>
		<line class="st4" x1="535.6" y1="190.1" x2="531.6" y2="189.7"/>
		<polyline class="st4" points="599,91.1 591.6,164.3 591,171.1 		"/>
		<polyline class="st4" points="523.9,184.8 527.9,185.2 530,164.9 		"/>
		<line class="st4" x1="532" y1="185.6" x2="527.9" y2="185.2"/>
		<polyline class="st4" points="523.9,184.8 524.3,180.7 520.2,180.3 		"/>
		<polyline class="st4" points="490,154 489.3,160.8 488.9,164.8 495.7,165.5 496.8,154.7 		"/>
		<polyline class="st4" points="502.2,155.2 500.7,170.1 495.3,169.6 495.7,165.5 		"/>
		<polyline class="st4" points="506.3,155.6 504.8,170.6 500.7,170.1 		"/>
		<polyline class="st4" points="510.3,156.1 508.8,171 504.8,170.6 		"/>
		<polyline class="st4" points="508.8,171 508.4,175 512.5,175.4 		"/>
		<polyline class="st4" points="565.3,180.8 561.3,180.4 563.2,161.4 		"/>
		<polyline class="st4" points="573.9,177.5 569.8,177.1 570.6,169 		"/>
		<polyline class="st4" points="582.8,170.2 586.9,170.6 591,171.1 		"/>
		<polyline class="st4" points="544.2,186.9 540.1,186.5 542.9,159.3 		"/>
		<polyline class="st4" points="548.7,183.2 548.2,187.3 544.2,186.9 546.9,159.8 		"/>
		<polyline class="st4" points="552.7,183.6 548.7,183.2 551,160.2 		"/>
		<polyline class="st4" points="555.1,160.6 552.7,183.6 556.8,184 557.2,180 		"/>
		<polyline class="st4" points="559.1,161 557.2,180 561.3,180.4 563.2,161.4 		"/>
		<line class="st4" x1="570.6" y1="169" x2="571.3" y2="162.2"/>
		<polyline class="st4" points="569.8,177.1 569.4,181.2 565.3,180.8 567.3,161.8 		"/>
		<polyline class="st4" points="578.4,173.9 577.9,178 573.9,177.5 575.4,162.6 		"/>
		<polyline class="st4" points="579.4,163 578.4,173.9 582.4,174.3 582.8,170.2 583.5,163.5 		"/>
		<polyline class="st4" points="516.5,175.9 512.5,175.4 514.4,156.5 		"/>
		<line class="st4" x1="496.8" y1="154.7" x2="500.5" y2="117.4"/>
		<polyline class="st4" points="506,118 505.7,120.2 502.2,155.2 		"/>
		<polyline class="st4" points="510,118.4 509.5,123.9 506.3,155.6 		"/>
		<polyline class="st4" points="514.1,118.8 513.3,126.9 510.3,156.1 		"/>
		<polyline class="st4" points="518.2,119.2 517.1,129.5 514.4,156.5 		"/>
		<polyline class="st4" points="522.2,119.6 521,131.6 518.5,156.9 		"/>
		<polyline class="st4" points="526.3,120 524.9,133.4 522.5,157.3 		"/>
		<line class="st4" x1="524.3" y1="180.7" x2="526.6" y2="157.7"/>
		<polyline class="st4" points="518.5,156.9 516.5,175.9 516.1,179.9 520.2,180.3 522.5,157.3 		"/>
		<polyline class="st4" points="530.4,120.4 528.9,134.8 526.6,157.7 		"/>
		<polyline class="st4" points="530,164.9 530.7,158.1 532.9,135.9 534.4,120.8 		"/>
		<polyline class="st4" points="538.5,121.3 536.9,136.7 534.7,158.5 534,165.3 533.6,169.4 533.2,173.4 532.8,177.5 532.4,181.6 
			532,185.6 531.6,189.7 		"/>
		<polyline class="st4" points="542.6,121.7 541,137.3 538.8,158.9 538.1,165.7 		"/>
		<polyline class="st4" points="546.6,122.1 545.1,137.5 542.9,159.3 		"/>
		<polyline class="st4" points="550.7,122.5 549.2,137.4 546.9,159.8 		"/>
		<polyline class="st4" points="554.8,122.9 553.3,137 551,160.2 		"/>
		<polyline class="st4" points="558.8,123.3 557.5,136.3 555.1,160.6 		"/>
		<polyline class="st4" points="562.9,123.7 561.7,135.2 559.1,161 		"/>
		<polyline class="st4" points="567,124.1 566,133.7 563.2,161.4 		"/>
		<polyline class="st4" points="571,124.5 570.3,131.8 567.3,161.8 		"/>
		<polyline class="st4" points="575.1,125 574.6,129.4 571.3,162.2 		"/>
		<polyline class="st4" points="579.2,125.4 579,126.4 575.4,162.6 		"/>
		<line class="st4" x1="579.4" y1="163" x2="583.2" y2="125.8"/>
		<line class="st4" x1="583.5" y1="163.5" x2="587.3" y2="126.2"/>
		<polyline class="st4" points="586.9,170.6 587.6,163.9 591.4,126.6 		"/>
		<line class="st5" x1="544.9" y1="186.9" x2="539.2" y2="242.7"/>
		<line class="st5" x1="535.2" y1="282.5" x2="535.2" y2="282.5"/>
		<line class="st5" x1="536.4" y1="270.4" x2="536.4" y2="270.4"/>
		<path class="st5" d="M537.7,258.2C537.7,258.2,537.7,258.2,537.7,258.2"/>
	</g>
</g>
<g>
	<polygon class="st6" points="254.5,-716.8 424.5,-716.8 463.5,-799.8 293.5,-799.8 	"/>
	<path class="st7" d="M295.5-779.8L295.5-779.8c0,0.2,0,0.3,0,0.5V-779.8z"/>
	<path class="st7" d="M306.5-779.8v0.5C306.5-779.5,306.5-779.6,306.5-779.8L306.5-779.8z"/>
	<path class="st5" d="M298.3-737.9l8.2-20.9h-11l-7.3,16.4c-0.1,0.1-0.1,0.3-0.2,0.4c-0.8,2.4,0.6,5.2,3.2,6.3s5.6,0.3,6.8-1.9
		C298.1-737.6,298.2-737.8,298.3-737.9z"/>
	<path class="st1" d="M305.9-781.7c1.4-0.9,3.4-1,5.2-0.2c2.6,1.2,4,3.9,3.2,6.3c0,0.1-0.1,0.3-0.1,0.4l-7.3,16.4h-0.3h-10.7"/>
	<path class="st7" d="M319.5-779.8L319.5-779.8c0,0.2,0,0.3,0,0.5V-779.8z"/>
	<path class="st7" d="M330.5-779.8v0.5C330.5-779.5,330.5-779.6,330.5-779.8L330.5-779.8z"/>
	<path class="st5" d="M322.3-737.9l8.2-20.9h-11l-7.3,16.4c-0.1,0.1-0.1,0.3-0.2,0.4c-0.8,2.4,0.6,5.2,3.2,6.3s5.6,0.3,6.8-1.9
		C322.1-737.6,322.2-737.8,322.3-737.9z"/>
	<path class="st1" d="M329.9-781.7c1.4-0.9,3.4-1,5.2-0.2c2.6,1.2,4,3.9,3.2,6.3c0,0.1-0.1,0.3-0.1,0.4l-7.3,16.4h-0.3h-10.7"/>
	<path class="st7" d="M343.5-779.8L343.5-779.8c0,0.2,0,0.3,0,0.5V-779.8z"/>
	<path class="st7" d="M354.5-779.8v0.5C354.5-779.5,354.5-779.6,354.5-779.8L354.5-779.8z"/>
	<path class="st5" d="M346.3-737.9l8.2-20.9h-11l-7.3,16.4c-0.1,0.1-0.1,0.3-0.2,0.4c-0.8,2.4,0.6,5.2,3.2,6.3s5.6,0.3,6.8-1.9
		C346.1-737.6,346.2-737.8,346.3-737.9z"/>
	<path class="st1" d="M353.9-781.7c1.4-0.9,3.4-1,5.2-0.2c2.6,1.2,4,3.9,3.2,6.3c0,0.1-0.1,0.3-0.1,0.4l-7.3,16.4h-0.3h-10.7"/>
	<path class="st7" d="M367.5-779.8L367.5-779.8c0,0.2,0,0.3,0,0.5V-779.8z"/>
	<path class="st7" d="M378.5-779.8v0.5C378.5-779.5,378.5-779.6,378.5-779.8L378.5-779.8z"/>
	<path class="st5" d="M370.3-737.9l8.2-20.9h-11l-7.3,16.4c-0.1,0.1-0.1,0.3-0.2,0.4c-0.8,2.4,0.6,5.2,3.2,6.3s5.6,0.3,6.8-1.9
		C370.1-737.6,370.2-737.8,370.3-737.9z"/>
	<path class="st1" d="M377.9-781.7c1.4-0.9,3.4-1,5.2-0.2c2.6,1.2,4,3.9,3.2,6.3c0,0.1-0.1,0.3-0.1,0.4l-7.3,16.4h-0.3h-10.7"/>
	<path class="st7" d="M391.5-779.8L391.5-779.8c0,0.2,0,0.3,0,0.5V-779.8z"/>
	<path class="st7" d="M402.5-779.8v0.5C402.5-779.5,402.5-779.6,402.5-779.8L402.5-779.8z"/>
	<path class="st5" d="M394.3-737.9l8.2-20.9h-11l-7.3,16.4c-0.1,0.1-0.1,0.3-0.2,0.4c-0.8,2.4,0.6,5.2,3.2,6.3s5.6,0.3,6.8-1.9
		C394.1-737.6,394.2-737.8,394.3-737.9z"/>
	<path class="st1" d="M401.9-781.7c1.4-0.9,3.4-1,5.2-0.2c2.6,1.2,4,3.9,3.2,6.3c0,0.1-0.1,0.3-0.1,0.4l-7.3,16.4h-0.3h-10.7"/>
	<path class="st7" d="M415.5-779.8L415.5-779.8c0,0.2,0,0.3,0,0.5V-779.8z"/>
	<path class="st7" d="M426.5-779.8v0.5C426.5-779.5,426.5-779.6,426.5-779.8L426.5-779.8z"/>
	<path class="st5" d="M418.3-737.9l8.2-20.9h-11l-7.3,16.4c-0.1,0.1-0.1,0.3-0.2,0.4c-0.8,2.4,0.6,5.2,3.2,6.3s5.6,0.3,6.8-1.9
		C418.1-737.6,418.2-737.8,418.3-737.9z"/>
	<path class="st1" d="M425.9-781.7c1.4-0.9,3.4-1,5.2-0.2c2.6,1.2,4,3.9,3.2,6.3c0,0.1-0.1,0.3-0.1,0.4l-7.3,16.4h-0.3h-10.7"/>
	<path class="st4" d="M306.5-779.3v20.5h-11v-20.5c0-0.2,0-0.3,0-0.5c0.2-2.8,2.6-5,5.5-5s5.2,2.2,5.5,5
		C306.5-779.6,306.5-779.5,306.5-779.3z"/>
	<path class="st4" d="M330.5-779.3v20.5h-11v-20.5c0-0.2,0-0.3,0-0.5c0.2-2.8,2.6-5,5.5-5s5.2,2.2,5.5,5
		C330.5-779.6,330.5-779.5,330.5-779.3z"/>
	<path class="st4" d="M354.5-779.3v20.5h-11v-20.5c0-0.2,0-0.3,0-0.5c0.2-2.8,2.6-5,5.5-5s5.2,2.2,5.5,5
		C354.5-779.6,354.5-779.5,354.5-779.3z"/>
	<path class="st4" d="M378.5-779.3v20.5h-11v-20.5c0-0.2,0-0.3,0-0.5c0.2-2.8,2.6-5,5.5-5s5.2,2.2,5.5,5
		C378.5-779.6,378.5-779.5,378.5-779.3z"/>
	<path class="st4" d="M402.5-779.3v20.5h-11v-20.5c0-0.2,0-0.3,0-0.5c0.2-2.8,2.6-5,5.5-5s5.2,2.2,5.5,5
		C402.5-779.6,402.5-779.5,402.5-779.3z"/>
	<path class="st4" d="M426.5-779.3v20.5h-11v-20.5c0-0.2,0-0.3,0-0.5c0.2-2.8,2.6-5,5.5-5s5.2,2.2,5.5,5
		C426.5-779.6,426.5-779.5,426.5-779.3z"/>
</g>
<g>
	<polyline class="st8" points="84,254.2 46.5,254.2 95.1,150.8 307,150.8 258.4,254.2 193.7,254.2 	"/>
	<path class="st7" d="M97.6,175.7L97.6,175.7c0,0.2,0,0.4,0,0.6V175.7z"/>
	<path class="st7" d="M111.3,175.7v0.6C111.3,176.1,111.3,175.9,111.3,175.7L111.3,175.7z"/>
	<path class="st9" d="M101.1,227.9l10.3-26H97.6l-9.1,20.5c-0.1,0.2-0.1,0.4-0.2,0.5c-1,3,0.7,6.4,4,7.9c3.3,1.5,6.9,0.4,8.5-2.3
		C100.9,228.2,101,228.1,101.1,227.9z"/>
	<path class="st1" d="M110.6,173.3c1.8-1.1,4.2-1.3,6.5-0.3c3.3,1.4,4.9,4.9,4,7.9c0,0.2-0.1,0.4-0.2,0.5l-9.1,20.5h-0.4H98"/>
	<path class="st7" d="M127.5,175.7L127.5,175.7c0,0.2,0,0.4,0,0.6V175.7z"/>
	<path class="st7" d="M141.2,175.7v0.6C141.2,176.1,141.2,175.9,141.2,175.7L141.2,175.7z"/>
	<path class="st9" d="M119.6,228.8c-1.5-1.7-2.1-3.9-1.4-6c0.1-0.2,0.1-0.4,0.2-0.5l9.1-20.5h0.4h13.3l-9,22.7"/>
	<path class="st1" d="M140.5,173.3c1.8-1.1,4.2-1.3,6.5-0.3c3.3,1.4,4.9,4.9,4,7.9c0,0.2-0.1,0.4-0.2,0.5l-9.1,20.5h-0.4h-13.3"/>
	<path class="st7" d="M157.4,175.7L157.4,175.7c0,0.2,0,0.4,0,0.6V175.7z"/>
	<path class="st7" d="M171.1,175.7v0.6C171.1,176.1,171.1,175.9,171.1,175.7L171.1,175.7z"/>
	<polyline class="st9" points="148.5,221.9 157.4,201.9 157.8,201.9 171.1,201.9 163,222.6 	"/>
	<path class="st1" d="M170.4,173.3c1.8-1.1,4.2-1.3,6.5-0.3c3.3,1.4,4.9,4.9,4,7.9c0,0.2-0.1,0.4-0.2,0.5l-9.1,20.5h-0.4h-13.3"/>
	<path class="st7" d="M187.3,175.7L187.3,175.7c0,0.2,0,0.4,0,0.6V175.7z"/>
	<path class="st7" d="M201.1,175.7v0.6C201.1,176.1,201,175.9,201.1,175.7L201.1,175.7z"/>
	<path class="st9" d="M190.8,227.9l10.3-26h-13.7l-9.1,20.5c-0.1,0.2-0.1,0.4-0.2,0.5c-1,3,0.7,6.4,4,7.9c3.3,1.5,6.9,0.4,8.5-2.3
		C190.6,228.2,190.7,228.1,190.8,227.9z"/>
	<path class="st1" d="M200.3,173.3c1.8-1.1,4.2-1.3,6.5-0.3c3.3,1.4,4.9,4.9,4,7.9c0,0.2-0.1,0.4-0.2,0.5l-9.1,20.5h-0.4h-13.3"/>
	<path class="st7" d="M217.3,175.7L217.3,175.7c0,0.2,0,0.4,0,0.6V175.7z"/>
	<path class="st7" d="M231,175.7v0.6C231,176.1,231,175.9,231,175.7L231,175.7z"/>
	<path class="st9" d="M220.7,227.9l10.3-26h-13.7l-9.1,20.5c-0.1,0.2-0.1,0.4-0.2,0.5c-1,3,0.7,6.4,4,7.9c3.3,1.5,6.9,0.4,8.5-2.3
		C220.5,228.2,220.6,228.1,220.7,227.9z"/>
	<path class="st1" d="M230.2,173.3c1.8-1.1,4.2-1.3,6.5-0.3c3.3,1.4,4.9,4.9,4,7.9c0,0.2-0.1,0.4-0.2,0.5l-9.1,20.5H231h-13.3"/>
	<path class="st7" d="M247.2,175.7L247.2,175.7c0,0.2,0,0.4,0,0.6V175.7z"/>
	<path class="st7" d="M260.9,175.7v0.6C260.9,176.1,260.9,175.9,260.9,175.7L260.9,175.7z"/>
	<path class="st9" d="M250.6,227.9l10.3-26h-13.7l-9.1,20.5c-0.1,0.2-0.1,0.4-0.2,0.5c-1,3,0.7,6.4,4,7.9s6.9,0.4,8.5-2.3
		C250.5,228.2,250.5,228.1,250.6,227.9z"/>
	<path class="st1" d="M260.2,173.3c1.8-1.1,4.2-1.3,6.5-0.3c3.3,1.4,4.9,4.9,4,7.9c0,0.2-0.1,0.4-0.2,0.5l-9.1,20.5h-0.4h-13.3"/>
	<path class="st4" d="M111.3,176.3v25.6H97.6v-25.6c0-0.2,0-0.4,0-0.6c0.3-3.5,3.2-6.2,6.8-6.2c3.6,0,6.5,2.7,6.8,6.2
		C111.3,175.9,111.3,176.1,111.3,176.3z"/>
	<path class="st4" d="M141.2,176.3v25.6h-13.7v-25.6c0-0.2,0-0.4,0-0.6c0.3-3.5,3.2-6.2,6.8-6.2s6.5,2.7,6.8,6.2
		C141.2,175.9,141.2,176.1,141.2,176.3z"/>
	<path class="st4" d="M171.1,176.3v25.6h-13.7v-25.6c0-0.2,0-0.4,0-0.6c0.3-3.5,3.2-6.2,6.8-6.2s6.5,2.7,6.8,6.2
		C171.1,175.9,171.1,176.1,171.1,176.3z"/>
	<path class="st4" d="M201.1,176.3v25.6h-13.7v-25.6c0-0.2,0-0.4,0-0.6c0.3-3.5,3.2-6.2,6.8-6.2c3.6,0,6.5,2.7,6.8,6.2
		C201,175.9,201.1,176.1,201.1,176.3z"/>
	<path class="st4" d="M231,176.3v25.6h-13.7v-25.6c0-0.2,0-0.4,0-0.6c0.3-3.5,3.2-6.2,6.8-6.2s6.5,2.7,6.8,6.2
		C231,175.9,231,176.1,231,176.3z"/>
	<path class="st4" d="M260.9,176.3v25.6h-13.7v-25.6c0-0.2,0-0.4,0-0.6c0.3-3.5,3.2-6.2,6.8-6.2s6.5,2.7,6.8,6.2
		C260.9,175.9,260.9,176.1,260.9,176.3z"/>
</g>
<line class="st10" x1="337" y1="259.7" x2="337" y2="259.7"/>
<path class="st11" d="M235,290C235,290,235,290,235,290l20.9-10.4"/>
<line class="st11" x1="332.6" y1="255.8" x2="326.4" y2="250.4"/>
<polyline class="st11" points="323.4,247.7 322,246.5 321.4,246.8 321.3,246.8 "/>
<path class="st11" d="M191.5,373.4c3.5,24.7,15,52,48.5,50.3c33.5-1.8,75.8-26.4,102.3-68.8c26.4-42.3,22.9-52.9,22.9-70.5"/>
<rect x="178.5" y="272.3" transform="matrix(0.8389 -0.5443 0.5443 0.8389 -123.1561 147.8521)" class="st8" width="19.4" height="19.4"/>
<polygon class="st1" points="377.5,434.3 331.7,434.3 331.7,434.3 377.5,434.3 "/>
<polyline class="st1" points="377.5,434.3 377.5,413.1 354.6,372.5 "/>
<polyline class="st1" points="331.7,434.3 354.6,372.5 377.5,434.3 "/>
<polygon class="st8" points="348.8,291.4 319.3,291.4 319.3,291.4 348.8,291.4 "/>
<polyline class="st2" points="299.6,263.4 270,279.1 264.1,275.4 255.9,270.3 282.3,256.5 "/>
<polyline class="st2" points="310.7,241.9 321.3,246.8 321.4,246.8 323.4,247.7 326.4,249.1 325.5,249.6 307.4,259.2 307.4,259.2 
	"/>
<polyline class="st2" points="255.9,270.3 255.9,286.1 270,296.7 270,279.1 "/>
<polyline class="st2" points="326.4,249.1 326.4,270.3 270,296.7 "/>
<polyline class="st0" points="245.3,313 245.3,301.1 245.3,300.3 "/>
<path class="st1" d="M282.3,217.4c8.8-5.3,19.4-10.6,24.7-14.1c7.1,5.3,5.3,14.1-3.5,17.6C294.6,224.4,282.3,217.4,282.3,217.4z"/>
<path class="st1" d="M311.4,211.2c0,10.3-0.9,32.7-0.9,45c-12.3,14.1-28.2,5.3-28.2,5.3v-44.1"/>
<polyline class="st8" points="348.8,291.4 348.8,277.8 334.1,251.8 "/>
<polyline class="st8" points="319.3,291.4 334.1,251.8 348.8,291.4 "/>
<path class="st1" d="M107.9,407.1c0-9,9-16.3,20.1-16.3S148,398,148,407.1c0,9-9,16.3-20.1,16.3S107.9,416.1,107.9,407.1"/>
<path class="st1" d="M147.8,408.9c0.1,0.6,0.1,1.2,0.1,1.9c0,9-9,16.3-20.1,16.3s-20.1-7.3-20.1-16.3c0-0.6,0-1.2,0.1-1.9"/>
<line class="st1" x1="122.7" y1="407.1" x2="134.6" y2="407.1"/>
<line class="st1" x1="128.7" y1="401.9" x2="127.9" y2="413"/>
<path class="st11" d="M148.1,429.3c11.1,0,20.1,7.3,20.1,16.3c0,9-9,16.3-20.1,16.3s-20.1-7.3-20.1-16.3"/>
<path class="st11" d="M128,445.7c0-9,9-16.3,20.1-16.3"/>
<path class="st11" d="M168,447.5c0.1,0.6,0.1,1.2,0.1,1.9c0,9-9,16.3-20.1,16.3c-11.1,0-20.1-7.3-20.1-16.3c0-0.6,0-1.2,0.1-1.9"/>
<line class="st11" x1="142.9" y1="445.7" x2="154.8" y2="445.7"/>
<line class="st11" x1="148.8" y1="440.5" x2="148.1" y2="451.6"/>
<g>
	<path class="st12" d="M406.6,343c-5.8-7.3-9.6-15.9-9.6-25.1c0-12.8,4.4-29.2,16.9-43.1"/>
	<path class="st12" d="M615.1,273.6C615.1,273.6,615.1,273.6,615.1,273.6c5,8,7.8,17.1,7.8,26.4c0,24.9-14.9,55.3-67.6,65H443
		c-3.1-0.6-6.2-1.5-9.4-2.7"/>
	<g>
		<path class="st8" d="M459,343.7c-14.4,0-25.1-6.9-29.7-19.4c-4.9-13.6,0.6-28.9,17.1-46.9c15.1-16.4,40.4-17.2,45.5-16
			c3.8,1,15.2,5.8,17.8,12.8c1,2.8,0.6,5.6-1.3,8.2c-1.9,2.6-3.8,4-5.9,4.1c-3.2,0.3-5.7-2.3-8.4-4.9c-1.9-1.9-3.9-3.9-6.2-5
			c-4.1-2.1-15.8-5.1-35.1,11.3c-7.5,6.3-11.5,15-11,23.9c0.3,5.7,2.6,10.8,5.7,12.8c7.2,4.8,9.1,6.1,23,3.6
			c11.7-2.1,40.3-28.4,55.6-42.5c2.4-2.3,4.6-4.2,6.3-5.8c13.5-12.1,32.4-7.2,41,0c6,5,5.2,11.5,4.6,16.3c-0.2,1.9-0.5,3.7-0.2,5
			c1,0.6,4.4,0.8,5.8-0.6c1.8-1.8,3.3-3.3,0.7-18.9c-0.9-5.5-4.7-10.4-10.6-13.8c-8.7-4.9-20.4-5.5-30.4-1.5
			c-7.4,3-18,12.8-29.2,23.3c-18,16.8-36.6,34.1-51.2,33.3c-5.1-0.3-9.4-3.3-11.5-8.1c-3.1-7-0.7-16.2,6.3-24.6
			c4.5-5.4,9.6-8.2,15.1-8.5c9-0.4,16.5,6.3,18.5,8.3c0.8,0.8,0.8,2,0,2.7c-0.8,0.8-2,0.8-2.7,0c-1.8-1.8-8.2-7.5-15.6-7.2
			c-4.4,0.2-8.6,2.6-12.3,7.1c-6,7.2-8.2,14.9-5.7,20.6c1.5,3.4,4.5,5.6,8.2,5.8c13,0.7,31.8-16.8,48.4-32.3
			c11.5-10.7,22.3-20.8,30.4-24.1c11.1-4.4,24-3.8,33.7,1.7c7,3.9,11.4,9.8,12.5,16.5c2.6,15.8,1.4,19-1.8,22.2
			c-2.2,2.2-6.2,2.6-8.9,1.8c-1.8-0.5-3-1.5-3.3-2.7c-0.5-2-0.2-4.3,0.1-6.6c0.6-4.5,1.1-9.2-3.3-12.9c-7.5-6.3-24.2-10.7-36,0
			c-1.7,1.5-3.8,3.5-6.3,5.7c-21.7,19.9-45.8,41.3-57.5,43.5c-14.7,2.7-17.7,1.2-25.8-4.1c-4.2-2.8-7-8.8-7.4-15.8
			c-0.6-10,3.9-19.9,12.4-27c7-5.9,24.9-19,39.3-11.8c2.8,1.4,5.1,3.7,7.2,5.7c2,2,4,3.9,5.3,3.8c1.1-0.1,2.2-1.4,3-2.5
			c1.1-1.6,1.4-3,0.8-4.6c-1.9-5.1-11.6-9.5-15.1-10.4c-4-1-27.8-0.4-41.7,14.8c-15.4,16.8-20.7,30.8-16.3,43
			c4.4,12,15.3,18.1,30.1,16.7c12.7-1.2,32.3-15.1,46.4-27.7c3-2.7,6.2-5.6,9.2-8.5c10.5-9.7,19.5-18,24.7-20.1
			c3.5-1.4,14.1-3.9,20.5,1.3c4,3.3,5.3,8.7,3.9,16.2c-0.2,1-1.2,1.7-2.2,1.5c-1-0.2-1.7-1.2-1.5-2.2c1.1-6,0.2-10.2-2.6-12.5
			c-4.6-3.7-13.2-2.1-16.6-0.7c-4.6,1.8-14.2,10.7-23.5,19.4c-3.1,2.8-6.2,5.7-9.3,8.5c-7,6.3-31.4,27.2-48.6,28.7
			C461.8,343.6,460.4,343.7,459,343.7z"/>
	</g>
	<circle class="st1" cx="542.1" cy="257.5" r="4.5"/>
	<path class="st13" d="M529.9,313.3c3.9,6.4,16.7,10.3,30.8-3.9"/>
	<path class="st13" d="M508.1,331.3c7.7,10.3,23.1,16.7,46.2,6.4c23.1-10.3,28.2-27,28.2-27"/>
	<path class="st6" d="M418.3,335.5c-7.4-6.8-12.7-15.3-13.9-24.8c0,0,0,0,0,0c-0.2-1.3-0.2-2.5-0.2-3.8c0-21.8,14.1-55.2,64.2-64.2
		h105.2c19.3,1.9,35,14.8,41.6,30.8c0,0,0,0,0,0c2.2,5.3,3.3,10.9,3.3,16.6c0,1.5-0.1,3-0.2,4.6c0,0,0,0,0,0
		c-1.8,22.1-17.2,47.3-64,55.7H447.8c-8.7-1.6-17.8-5.8-25.5-11.7"/>
	<path class="st6" d="M432.7,354.9c4.9,2.5,10.1,4.3,15.1,5.3h106.5c50-9.1,64.2-37.9,64.2-61.4c0-1.3-0.1-2.6-0.2-4
		c-2-22-20.5-41.9-44.7-44.4H468.3c-46.4,8.5-61.9,38.3-63.9,60.3c-0.2,1.7-0.2,3.4-0.2,5c0,8.5,3.4,16.5,8.8,23.2"/>
</g>
<polyline class="st3" points="411.6,371.9 396.9,349.3 419.5,334.6 434.2,357.3 411.6,371.9 "/>
<polyline class="st3" points="411.6,371.4 411.6,435.1 396.9,414.3 396.9,349.3 "/>
<polyline class="st3" points="411.6,435.1 433.7,421.7 433.7,356.7 "/>
<g>
	<path class="st1" d="M158,372.2H42.2L70,276.1c16.4-36.7,54.4-54.4,83.5-54.4c27.7,0,42.8,20.6,43.1,55.3v0"/>
	<path class="st9" d="M116.8,324.2c30.2,3,48.1-22.8,49.3-34.1s0-29.1-16.4-34.1c-16.4-5.1-41.7,7.6-50.6,26.6
		C90.2,301.4,91.5,321.6,116.8,324.2z"/>
	<path class="st9" d="M111.7,315.3c30.2,3,48.1-22.8,49.3-34.1s0-29.1-16.4-34.1s-41.7,7.6-50.6,26.6
		C85.2,292.5,86.5,312.8,111.7,315.3z"/>
	<path class="st13" d="M122.2,300.1c12.5,1.2,19.9-9.4,20.4-14.1s0-12-6.8-14.1c-6.8-2.1-17.2,3.1-20.9,11
		C111.2,290.7,111.7,299,122.2,300.1z"/>
	<circle class="st4" cx="119.3" cy="268.5" r="3.8"/>
	<path class="st5" d="M108.2,277.5c-1.5,1.7-3,3.7-4.3,6"/>
	<path class="st5" d="M101,300.7c-0.6-2.3-0.8-4.5-0.6-6.6"/>
	<path class="st5" d="M103.5,306.6c-0.5-0.8-0.9-1.6-1.2-2.4"/>
	<path class="st5" d="M102.6,286c-0.8,1.7-1.4,3.5-1.8,5.4"/>
	<path class="st5" d="M111.1,274.6c-0.4,0.4-0.9,0.8-1.3,1.2"/>
</g>
<polyline class="st11" points="340.1,262.4 366.1,285.3 191.5,373.4 145.7,334.6 174.8,320.1 "/>
<path class="st11" d="M145.7,334.6c0,8,0.5,14.3,2.3,20.3c2.6,8.5,7.8,16,14.7,21.6c15.5,12.4,44.8,35.4,44.8,35.4"/>
<polyline class="st8" points="185.3,295 185.3,340.8 174.8,325.8 174.8,279.1 "/>
<polygon class="st12" points="187.1,328.5 187.1,351.4 198.6,362.8 198.6,338.2 "/>
<path class="st0" d="M223.7,314.3c-0.2,0-0.3,0-0.5,0c-9.3,0-17.2-3.4-20.5-8.3c-1-1.5-1.6-3.2-1.6-4.9c0-7.3,9.9-13.2,22-13.2
	c4.3,0,8.4,0.7,11.8,2c0,0,0,0,0,0c6.2,2.3,10.3,6.5,10.3,11.2c0,3-1.7,5.8-4.5,8"/>
<path class="st0" d="M201.2,320.1c4.2,4.2,9.3,6.6,13.5,8.4"/>
<polyline class="st12" points="208.6,333.5 208.2,333.7 198.6,338.2 "/>
<polyline class="st12" points="198.7,362.7 248.8,339 248.8,316.1 238.2,321.4 225.9,309.1 234.7,303.8 248.8,316.1 "/>
<path class="st12" d="M225.9,309.1c-3.5,8.8-7.1,17.6-17.6,24.7c-1.8,8.8,8.8,10.6,14.1,8.8s15.9-10.6,15.9-21.2"/>
<polyline class="st12" points="187.1,328.5 197.7,324.9 208.3,333.8 "/>
<polyline class="st8" points="201.2,327.9 201.2,320.1 201.2,306.9 201.2,301.1 201.2,284.4 "/>
</svg>
