<?xml version="1.0" encoding="utf-8"?>
<!-- Generator: Adobe Illustrator 22.0.1, SVG Export Plug-In . SVG Version: 6.00 Build 0)  -->
<svg version="1.1" id="Layer_1" xmlns="http://www.w3.org/2000/svg" xmlns:xlink="http://www.w3.org/1999/xlink" x="0px" y="0px"
	 viewBox="0 0 393.9 220.7" style="enable-background:new 0 0 393.9 220.7;" xml:space="preserve">
<style type="text/css">
	.st0{fill:none;stroke:#8A8FC7;stroke-miterlimit:10;}
	.st1{fill:none;stroke:#010101;stroke-miterlimit:10;}
	.st2{fill:none;stroke:#EF412D;stroke-miterlimit:10;}
	.st3{fill:none;stroke:#EE3769;stroke-miterlimit:10;}
	.st4{fill:none;stroke:#F9AE8D;stroke-miterlimit:10;}
</style>
<g>
	<polygon class="st0" points="0,188.6 320.4,188.6 393.9,32.1 73.5,32.1 	"/>
	<path class="st1" d="M77.3,69.8L77.3,69.8c0,0.3,0,0.6,0,0.9V69.8z"/>
	<path class="st1" d="M98,69.8v0.9C98,70.5,98,70.1,98,69.8L98,69.8z"/>
	<path class="st2" d="M82.5,148.8L98,109.4H77.3l-13.7,30.9c-0.1,0.3-0.2,0.5-0.3,0.8c-1.5,4.5,1,9.7,6,11.9
		c4.9,2.2,10.5,0.6,12.9-3.6C82.2,149.3,82.4,149,82.5,148.8z"/>
	<path class="st3" d="M96.9,66.2c2.7-1.6,6.4-1.9,9.8-0.4c4.9,2.2,7.5,7.4,6,11.9c-0.1,0.3-0.2,0.5-0.3,0.8l-13.7,30.9H98H77.9"/>
	<path class="st1" d="M122.5,69.8L122.5,69.8c0,0.3,0,0.6,0,0.9V69.8z"/>
	<path class="st1" d="M143.2,69.8v0.9C143.2,70.5,143.2,70.1,143.2,69.8L143.2,69.8z"/>
	<path class="st2" d="M127.7,148.8l15.5-39.3h-20.7l-13.7,30.9c-0.1,0.3-0.2,0.5-0.3,0.8c-1.5,4.5,1,9.7,6,11.9
		c4.9,2.2,10.5,0.6,12.9-3.6C127.5,149.3,127.6,149,127.7,148.8z"/>
	<path class="st3" d="M142.1,66.2c2.7-1.6,6.4-1.9,9.8-0.4c4.9,2.2,7.5,7.4,6,11.9c-0.1,0.3-0.2,0.5-0.3,0.8l-13.7,30.9h-0.6h-20.1"
		/>
	<path class="st1" d="M167.7,69.8L167.7,69.8c0,0.3,0,0.6,0,0.9V69.8z"/>
	<path class="st1" d="M188.5,69.8v0.9C188.5,70.5,188.5,70.1,188.5,69.8L188.5,69.8z"/>
	<path class="st2" d="M173,148.8l15.5-39.3h-20.7L154,140.4c-0.1,0.3-0.2,0.5-0.3,0.8c-1.5,4.5,1,9.7,6,11.9
		c4.9,2.2,10.5,0.6,12.9-3.6C172.7,149.3,172.8,149,173,148.8z"/>
	<path class="st3" d="M187.4,66.2c2.7-1.6,6.4-1.9,9.8-0.4c4.9,2.2,7.5,7.4,6,11.9c-0.1,0.3-0.2,0.5-0.3,0.8l-13.7,30.9h-0.6h-20.1"
		/>
	<path class="st1" d="M213,69.8L213,69.8c0,0.3,0,0.6,0,0.9V69.8z"/>
	<path class="st1" d="M233.7,69.8v0.9C233.7,70.5,233.7,70.1,233.7,69.8L233.7,69.8z"/>
	<path class="st2" d="M218.2,148.8l15.5-39.3H213l-13.7,30.9c-0.1,0.3-0.2,0.5-0.3,0.8c-1.5,4.5,1,9.7,6,11.9
		c4.9,2.2,10.5,0.6,12.9-3.6C217.9,149.3,218.1,149,218.2,148.8z"/>
	<path class="st3" d="M232.6,66.2c2.7-1.6,6.4-1.9,9.8-0.4c4.9,2.2,7.5,7.4,6,11.9c-0.1,0.3-0.2,0.5-0.3,0.8l-13.7,30.9h-0.6h-20.1"
		/>
	<path class="st1" d="M258.2,69.8L258.2,69.8c0,0.3,0,0.6,0,0.9V69.8z"/>
	<path class="st1" d="M278.9,69.8v0.9C278.9,70.5,278.9,70.1,278.9,69.8L278.9,69.8z"/>
	<path class="st2" d="M263.4,148.8l15.5-39.3h-20.7l-13.7,30.9c-0.1,0.3-0.2,0.5-0.3,0.8c-1.5,4.5,1,9.7,6,11.9
		c4.9,2.2,10.5,0.6,12.9-3.6C263.2,149.3,263.3,149,263.4,148.8z"/>
	<path class="st3" d="M277.9,66.2c2.7-1.6,6.4-1.9,9.8-0.4c4.9,2.2,7.5,7.4,6,11.9c-0.1,0.3-0.2,0.5-0.3,0.8l-13.7,30.9h-0.6h-20.1"
		/>
	<path class="st1" d="M303.4,69.8L303.4,69.8c0,0.3,0,0.6,0,0.9V69.8z"/>
	<path class="st1" d="M324.2,69.8v0.9C324.2,70.5,324.2,70.1,324.2,69.8L324.2,69.8z"/>
	<path class="st2" d="M308.7,148.8l15.5-39.3h-20.7l-13.7,30.9c-0.1,0.3-0.2,0.5-0.3,0.8c-1.5,4.5,1,9.7,6,11.9
		c4.9,2.2,10.5,0.6,12.9-3.6C308.4,149.3,308.5,149,308.7,148.8z"/>
	<path class="st3" d="M323.1,66.2c2.7-1.6,6.4-1.9,9.8-0.4c4.9,2.2,7.5,7.4,6,11.9c-0.1,0.3-0.2,0.5-0.3,0.8l-13.7,30.9h-0.6h-20.1"
		/>
	<path class="st4" d="M98,70.8v38.6H77.3V70.8c0-0.3,0-0.6,0.1-0.9c0.5-5.3,4.9-9.4,10.3-9.4c5.4,0,9.8,4.1,10.3,9.4
		C98,70.1,98,70.5,98,70.8z"/>
	<path class="st4" d="M143.2,70.8v38.6h-20.7V70.8c0-0.3,0-0.6,0.1-0.9c0.5-5.3,4.9-9.4,10.3-9.4c5.4,0,9.8,4.1,10.3,9.4
		C143.2,70.1,143.2,70.5,143.2,70.8z"/>
	<path class="st4" d="M188.5,70.8v38.6h-20.7V70.8c0-0.3,0-0.6,0.1-0.9c0.5-5.3,4.9-9.4,10.3-9.4s9.8,4.1,10.3,9.4
		C188.5,70.1,188.5,70.5,188.5,70.8z"/>
	<path class="st4" d="M233.7,70.8v38.6H213V70.8c0-0.3,0-0.6,0.1-0.9c0.5-5.3,4.9-9.4,10.3-9.4c5.4,0,9.8,4.1,10.3,9.4
		C233.7,70.1,233.7,70.5,233.7,70.8z"/>
	<path class="st4" d="M278.9,70.8v38.6h-20.7V70.8c0-0.3,0-0.6,0.1-0.9c0.5-5.3,4.9-9.4,10.3-9.4s9.8,4.1,10.3,9.4
		C278.9,70.1,278.9,70.5,278.9,70.8z"/>
	<path class="st4" d="M324.2,70.8v38.6h-20.7V70.8c0-0.3,0-0.6,0.1-0.9c0.5-5.3,4.9-9.4,10.3-9.4c5.4,0,9.8,4.1,10.3,9.4
		C324.2,70.1,324.2,70.5,324.2,70.8z"/>
</g>
</svg>
