<?xml version="1.0" encoding="utf-8"?>
<!-- Generator: Adobe Illustrator 22.0.1, SVG Export Plug-In . SVG Version: 6.00 Build 0)  -->
<svg version="1.1" id="Layer_1" xmlns="http://www.w3.org/2000/svg" xmlns:xlink="http://www.w3.org/1999/xlink" x="0px" y="0px"
	 viewBox="0 0 393.9 220.7" style="enable-background:new 0 0 393.9 220.7;" xml:space="preserve">
<style type="text/css">
	.st0{fill:none;stroke:#EE3569;stroke-miterlimit:10;}
	.st1{fill:none;stroke:#F3735D;stroke-miterlimit:10;}
	.st2{fill:none;stroke:#EECCAE;stroke-miterlimit:10;}
	.st3{fill:none;stroke:#8A8FC7;stroke-miterlimit:10;}
	.st4{fill:none;stroke:#5664AE;stroke-miterlimit:10;}
</style>
<path class="st0" d="M373.5,59.8c8.3,13.1,13,28.3,13,43.7c0,41.2-24.6,91.6-111.9,107.6H88.8c-35.8-6.9-76.1-38.9-76.1-77.8
	c0-21.1,7.3-48.4,27.9-71.4"/>
<g>
	<path class="st1" d="M115.1,175.8c-23.9,0-41.6-11.5-49.1-32.2c-8.2-22.5,1.1-47.9,28.3-77.6c24.9-27.2,66.9-28.5,75.3-26.4
		c6.4,1.6,25.1,9.5,29.4,21.1c1.7,4.6,1,9.3-2.1,13.6c-3.1,4.3-6.2,6.5-9.7,6.8c-5.3,0.4-9.5-3.7-13.9-8.2
		c-3.1-3.1-6.4-6.4-10.2-8.3c-6.8-3.4-26.1-8.4-58.1,18.7c-12.4,10.5-19,24.9-18.2,39.5c0.5,9.5,4.2,17.8,9.4,21.3
		c11.9,7.9,15.1,10.1,38,5.9c19.3-3.5,66.6-47,92.1-70.4c4.1-3.7,7.6-7,10.4-9.5c22.3-20.1,53.7-11.9,67.9-0.1
		c10,8.3,8.6,19.1,7.7,27c-0.4,3.1-0.7,6.1-0.4,8.2c1.6,1,7.2,1.4,9.6-1c3-3,5.5-5.5,1.2-31.2c-1.5-9.2-7.8-17.2-17.6-22.8
		c-14.5-8.1-33.7-9.1-50.3-2.4c-12.2,4.9-29.8,21.2-48.3,38.6c-29.7,27.8-60.5,56.4-84.7,55.1c-8.5-0.5-15.6-5.5-19-13.4
		c-5-11.6-1.2-26.8,10.4-40.7c7.4-8.9,15.8-13.6,25-14c15-0.6,27.2,10.4,30.6,13.8c1.2,1.2,1.2,3.3,0,4.5c-1.2,1.2-3.3,1.2-4.5,0
		c-2.9-2.9-13.5-12.5-25.8-11.9c-7.4,0.3-14.2,4.3-20.4,11.7c-10,12-13.5,24.7-9.4,34c2.5,5.7,7.5,9.3,13.5,9.6
		c21.5,1.2,52.6-27.8,80-53.4c19-17.7,36.9-34.5,50.3-39.8c18.3-7.3,39.7-6.3,55.8,2.8c11.5,6.5,18.9,16.2,20.7,27.3
		c4.3,26.1,2.3,31.4-3,36.8c-3.7,3.7-10.2,4.3-14.8,3c-3-0.8-4.9-2.4-5.4-4.5c-0.8-3.3-0.4-7,0.1-11c0.9-7.5,1.9-15.2-5.4-21.3
		c-12.5-10.4-40-17.6-59.5-0.1c-2.8,2.6-6.4,5.8-10.4,9.5c-35.8,33-75.7,68.4-95.2,72c-24.4,4.4-29.3,2.1-42.7-6.9
		c-6.9-4.6-11.6-14.6-12.2-26.2c-1-16.6,6.5-32.9,20.4-44.7c11.6-9.8,41.2-31.4,65.1-19.5c4.7,2.4,8.5,6.1,11.8,9.5
		c3.4,3.3,6.6,6.5,8.8,6.3c1.8-0.1,3.7-2.4,5-4.2c1.9-2.6,2.3-5,1.3-7.6c-3.1-8.4-19.1-15.7-25-17.1c-6.7-1.7-46-0.6-69.1,24.5
		c-25.4,27.8-34.3,51-27,71.1c7.2,19.8,25.3,29.9,49.8,27.6c21.1-1.9,53.5-25,76.7-45.9c5-4.5,10.2-9.3,15.3-14
		c17.3-16,32.3-29.9,40.9-33.3c5.8-2.3,23.3-6.5,33.9,2.2c6.6,5.5,8.8,14.5,6.5,26.8c-0.3,1.7-2,2.9-3.7,2.5c-1.7-0.3-2.9-2-2.5-3.7
		c1.9-9.9,0.4-16.9-4.3-20.7c-7.6-6.2-21.8-3.5-27.5-1.2c-7.5,3-23.5,17.8-38.9,32.1c-5,4.7-10.3,9.5-15.3,14.1
		c-11.7,10.5-51.9,44.9-80.4,47.5C119.9,175.7,117.5,175.8,115.1,175.8z"/>
</g>
<path class="st2" d="M232.5,125.6c6.4,10.6,27.6,17,51-6.4"/>
<path class="st2" d="M196.4,155.3c12.7,17,38.2,27.6,76.5,10.6s46.7-44.6,46.7-44.6"/>
<path class="st3" d="M130.6,8.8C47.8,23.7,24.4,78.9,24.4,115s38.2,65.8,72.2,72.2h176.3c82.8-14.9,106.2-61.6,106.2-99.8
	S347.2,13,304.7,8.8C304.7,8.8,130.6,8.8,130.6,8.8z"/>
<path class="st4" d="M130.6,21.5C47.8,36.7,24.4,92.9,24.4,129.6s38.2,67,72.2,73.5h176.3c82.8-15.1,106.2-62.7,106.2-101.6
	s-31.9-75.7-74.3-80C304.7,21.5,130.6,21.5,130.6,21.5z"/>
<circle class="st0" cx="263.2" cy="31.9" r="5.2"/>
</svg>
