<?xml version="1.0" encoding="utf-8"?>
<!-- Generator: Adobe Illustrator 22.0.1, SVG Export Plug-In . SVG Version: 6.00 Build 0)  -->
<svg version="1.1" id="Layer_1" xmlns="http://www.w3.org/2000/svg" xmlns:xlink="http://www.w3.org/1999/xlink" x="0px" y="0px"
	 viewBox="0 0 138.7 300.7" style="enable-background:new 0 0 138.7 300.7;" xml:space="preserve">
<style type="text/css">
	.st0{fill:none;stroke:#EF402D;stroke-miterlimit:10;}
	.st1{fill:none;stroke:#EE3569;stroke-miterlimit:10;}
	.st2{fill:none;stroke:#485CA9;stroke-miterlimit:10;}
	.st3{fill:none;stroke:#8A8FC6;stroke-miterlimit:10;}
</style>
<polyline class="st0" points="60.3,176 60.3,289.5 71.2,289.5 71.2,176 "/>
<path class="st1" d="M25.1,29.6c10.2-15.2,28-25.3,48.3-25.3c31.8,0,57.5,24.8,57.5,55.3v87.3h-7.3"/>
<path class="st1" d="M8.6,68.3C8.6,37.7,34.4,13,66.1,13s57.5,24.8,57.5,55.3"/>
<circle class="st2" cx="36.3" cy="62.5" r="5.8"/>
<circle class="st3" cx="36.3" cy="62.5" r="17.5"/>
<circle class="st2" cx="93" cy="62.5" r="5.8"/>
<circle class="st3" cx="93" cy="62.5" r="17.5"/>
<polyline class="st1" points="66.9,154.2 66.9,180.4 71.2,180.4 71.2,176 "/>
<line class="st1" x1="66.9" y1="180.4" x2="62.5" y2="180.4"/>
<polyline class="st1" points="8.6,154.2 8.6,146.9 8.6,68.3 "/>
<polyline class="st1" points="123.6,68.3 123.6,146.9 123.6,154.2 "/>
<polyline class="st1" points="53.8,176 58.1,176 58.1,154.2 "/>
<line class="st1" x1="62.5" y1="176" x2="58.1" y2="176"/>
<polyline class="st1" points="53.8,176 53.8,171.6 49.4,171.6 "/>
<polyline class="st1" points="14.5,146.9 14.5,154.2 14.5,158.5 21.7,158.5 21.7,146.9 "/>
<polyline class="st1" points="27.6,146.9 27.6,162.9 21.7,162.9 21.7,158.5 "/>
<polyline class="st1" points="31.9,146.9 31.9,162.9 27.6,162.9 "/>
<polyline class="st1" points="36.3,146.9 36.3,162.9 31.9,162.9 "/>
<polyline class="st1" points="36.3,162.9 36.3,167.3 40.7,167.3 "/>
<polyline class="st1" points="97.4,167.3 93,167.3 93,146.9 "/>
<polyline class="st1" points="106.1,162.9 101.8,162.9 101.8,154.2 "/>
<polyline class="st1" points="114.9,154.2 119.2,154.2 123.6,154.2 "/>
<line class="st1" x1="14.5" y1="154.2" x2="8.6" y2="154.2"/>
<polyline class="st1" points="75.6,176 71.2,176 71.2,146.9 "/>
<polyline class="st1" points="79.9,171.6 79.9,176 75.6,176 75.6,146.9 "/>
<polyline class="st1" points="84.3,171.6 79.9,171.6 79.9,146.9 "/>
<polyline class="st1" points="84.3,146.9 84.3,171.6 88.7,171.6 88.7,167.3 "/>
<polyline class="st1" points="88.7,146.9 88.7,167.3 93,167.3 93,146.9 "/>
<line class="st1" x1="101.8" y1="154.2" x2="101.8" y2="146.9"/>
<polyline class="st1" points="101.8,162.9 101.8,167.3 97.4,167.3 97.4,146.9 "/>
<polyline class="st1" points="110.5,158.5 110.5,162.9 106.1,162.9 106.1,146.9 "/>
<polyline class="st1" points="110.5,146.9 110.5,158.5 114.9,158.5 114.9,154.2 114.9,146.9 "/>
<polyline class="st1" points="45,167.3 40.7,167.3 40.7,146.9 "/>
<line class="st1" x1="14.5" y1="146.9" x2="14.5" y2="106.1"/>
<line class="st1" x1="21.7" y1="146.9" x2="21.7" y2="106.9"/>
<polyline class="st1" points="27.6,106.9 27.6,109.3 27.6,146.9 "/>
<polyline class="st1" points="31.9,106.9 31.9,112.7 31.9,146.9 "/>
<polyline class="st1" points="36.3,106.9 36.3,115.6 36.3,146.9 "/>
<polyline class="st1" points="40.7,106.9 40.7,117.9 40.7,146.9 "/>
<polyline class="st1" points="45,106.9 45,119.8 45,146.9 "/>
<polyline class="st1" points="49.4,106.9 49.4,121.2 49.4,146.9 "/>
<line class="st1" x1="53.8" y1="171.6" x2="53.8" y2="146.9"/>
<polyline class="st1" points="45,146.9 45,167.3 45,171.6 49.4,171.6 49.4,146.9 "/>
<polyline class="st1" points="53.8,106.9 53.8,122.3 53.8,146.9 "/>
<polyline class="st1" points="58.1,154.2 58.1,146.9 58.1,123.1 58.1,106.9 "/>
<polyline class="st1" points="62.5,106.9 62.5,123.5 62.5,146.9 62.5,154.2 62.5,158.5 62.5,162.9 62.5,167.3 62.5,171.6 62.5,176 
	62.5,180.4 "/>
<polyline class="st1" points="66.9,106.9 66.9,123.6 66.9,146.9 66.9,154.2 "/>
<polyline class="st1" points="71.2,106.9 71.2,123.4 71.2,146.9 "/>
<polyline class="st1" points="75.6,106.9 75.6,122.9 75.6,146.9 "/>
<polyline class="st1" points="79.9,106.9 79.9,122 79.9,146.9 "/>
<polyline class="st1" points="84.3,106.9 84.3,120.8 84.3,146.9 "/>
<polyline class="st1" points="88.7,106.9 88.7,119.2 88.7,146.9 "/>
<polyline class="st1" points="93,106.9 93,117.2 93,146.9 "/>
<polyline class="st1" points="97.4,106.9 97.4,114.7 97.4,146.9 "/>
<polyline class="st1" points="101.8,106.9 101.8,111.7 101.8,146.9 "/>
<polyline class="st1" points="106.1,106.9 106.1,108 106.1,146.9 "/>
<line class="st1" x1="110.5" y1="146.9" x2="110.5" y2="106.9"/>
<line class="st1" x1="114.9" y1="146.9" x2="114.9" y2="106.9"/>
<polyline class="st1" points="119.2,154.2 119.2,146.9 119.2,106.9 "/>
<polyline class="st0" points="71.2,289.5 76.3,284.4 76.3,176 "/>
</svg>
