<?xml version="1.0" encoding="utf-8"?>
<!-- Generator: Adobe Illustrator 22.0.1, SVG Export Plug-In . SVG Version: 6.00 Build 0)  -->
<svg version="1.1" id="Layer_1" xmlns="http://www.w3.org/2000/svg" xmlns:xlink="http://www.w3.org/1999/xlink" x="0px" y="0px"
	 viewBox="0 0 238.7 190.7" style="enable-background:new 0 0 238.7 190.7;" xml:space="preserve">
<style type="text/css">
	.st0{fill:none;stroke:#FFFFFF;stroke-miterlimit:10;}
	.st1{fill:none;stroke:#DAB79A;stroke-miterlimit:10;}
	.st2{fill:none;stroke:#F3735D;stroke-miterlimit:10;}
	.st3{fill:none;stroke:#EB9B81;stroke-miterlimit:10;}
	.st4{fill:none;stroke:#EE3769;stroke-miterlimit:10;}
	.st5{fill:none;stroke:#5464AE;stroke-miterlimit:10;}
	.st6{fill:none;stroke:#EF507A;stroke-miterlimit:10;}
	.st7{fill:none;stroke:#8180BC;stroke-miterlimit:10;}
</style>
<line class="st0" x1="153.9" y1="48.2" x2="153.9" y2="48.2"/>
<polyline class="st1" points="156.3,50.3 176.6,68.2 40.3,137 4.5,106.7 27.2,95.4 "/>
<path class="st1" d="M74.2,71.8C74.3,71.8,74.3,71.8,74.2,71.8l16.3-8.1"/>
<line class="st1" x1="150.4" y1="45.2" x2="145.6" y2="40.9"/>
<polyline class="st1" points="143.3,38.9 142.2,37.9 141.7,38.1 141.7,38.1 "/>
<path class="st1" d="M40.3,137c2.8,19.3,11.7,40.6,37.9,39.2s59.2-20.7,79.9-53.7s17.9-41.3,17.9-55.1"/>
<path class="st1" d="M4.5,106.7c0,6.3,0.4,11.2,1.8,15.8c2,6.7,6.1,12.5,11.5,16.9c12.1,9.7,35,27.6,35,27.6"/>
<rect x="30.1" y="58" transform="matrix(0.8389 -0.5443 0.5443 0.8389 -29.6334 31.0784)" class="st2" width="15.1" height="15.1"/>
<polyline class="st2" points="35.5,75.8 35.5,111.6 27.2,99.8 27.2,63.4 "/>
<polyline class="st3" points="212.1,135.9 200.7,118.2 218.3,106.7 229.8,124.4 212.1,135.9 "/>
<polyline class="st3" points="212.2,135.4 212.2,185.2 200.7,168.9 200.7,118.2 "/>
<polyline class="st3" points="212.2,185.2 229.4,174.7 229.4,123.9 "/>
<polygon class="st4" points="185.5,184.5 149.7,184.5 149.7,184.5 185.5,184.5 "/>
<polyline class="st4" points="185.5,184.5 185.5,168 167.6,136.3 "/>
<polyline class="st4" points="149.7,184.5 167.6,136.3 185.5,184.5 "/>
<polygon class="st2" points="163.1,73 140.1,73 140.1,73 163.1,73 "/>
<polyline class="st5" points="124.7,51.1 101.6,63.4 97,60.5 90.5,56.5 111.2,45.7 "/>
<polyline class="st5" points="133.4,34.3 141.7,38.1 141.7,38.1 143.3,38.9 145.6,40 144.9,40.3 130.8,47.8 130.8,47.8 "/>
<polyline class="st5" points="90.5,56.5 90.5,68.9 101.6,77.1 101.6,63.4 "/>
<polyline class="st5" points="145.6,40 145.6,56.5 101.6,77.1 "/>
<polygon class="st6" points="36.8,101.9 36.8,119.8 45.8,128.8 45.8,109.5 "/>
<path class="st7" d="M65.4,90.9c-0.1,0-0.2,0-0.4,0c-7.2,0-13.4-2.7-16-6.5c-0.8-1.2-1.2-2.5-1.2-3.9c0-5.7,7.7-10.3,17.2-10.3
	c3.4,0,6.5,0.6,9.2,1.6c0,0,0,0,0,0c4.8,1.8,8,5.1,8,8.7c0,2.3-1.3,4.5-3.5,6.2"/>
<polyline class="st7" points="82.3,89.9 82.3,80.6 82.3,79.9 "/>
<path class="st7" d="M47.9,95.4c3.3,3.3,7.3,5.2,10.5,6.5"/>
<polyline class="st6" points="53.6,105.9 53.3,106 45.8,109.5 "/>
<path class="st4" d="M111.2,15.2c6.9-4.1,15.1-8.3,19.3-11c5.5,4.1,4.1,11-2.8,13.8C120.8,20.7,111.2,15.2,111.2,15.2z"/>
<path class="st4" d="M133.9,10.4c0,8-0.7,25.5-0.7,35.1c-9.6,11-22,4.1-22,4.1V15.2"/>
<polyline class="st2" points="163.1,73 163.1,62.4 151.6,42 "/>
<polyline class="st2" points="140.1,73 151.6,42 163.1,73 "/>
<polyline class="st6" points="45.9,128.6 85,110.2 85,92.3 76.8,96.4 67.1,86.8 74,82.6 85,92.3 "/>
<path class="st6" d="M67.1,86.8c-2.8,6.9-5.5,13.8-13.8,19.3c-1.4,6.9,6.9,8.3,11,6.9c4.1-1.4,12.4-8.3,12.4-16.5"/>
<polyline class="st6" points="36.8,101.9 45.1,99.2 53.4,106 "/>
<polyline class="st2" points="47.9,101.5 47.9,95.4 47.9,85 47.9,80.6 47.9,67.5 "/>
</svg>
