<?xml version="1.0" encoding="utf-8"?>
<!-- Generator: Adobe Illustrator 22.0.1, SVG Export Plug-In . SVG Version: 6.00 Build 0)  -->
<svg version="1.1" id="Layer_1" xmlns="http://www.w3.org/2000/svg" xmlns:xlink="http://www.w3.org/1999/xlink" x="0px" y="0px"
	 viewBox="0 0 247.9 302.1" style="enable-background:new 0 0 247.9 302.1;" xml:space="preserve">
<style type="text/css">
	.st0{fill:none;stroke:#8180BC;stroke-width:2;stroke-miterlimit:10;}
	.st1{fill:none;stroke:#EE3769;stroke-width:2;stroke-miterlimit:10;}
	.st2{fill:none;stroke:#5464AE;stroke-width:2;stroke-miterlimit:10;}
	.st3{fill:none;stroke:#EB9B81;stroke-width:2;stroke-miterlimit:10;}
</style>
<text transform="matrix(1 0 0 1 890.6667 593.3334)" style="font-family:'MyriadPro-Regular'; font-size:12px;">&lt;img src=&quot;assets/images/toy-6.svg&quot;&gt;</text>
<text transform="matrix(1 0 0 1 890.6667 593.3334)" style="font-family:'MyriadPro-Regular'; font-size:12px;">&lt;img src=&quot;assets/images/toy-6.svg&quot;&gt;</text>
<text transform="matrix(1 0 0 1 890.6667 593.3334)" style="font-family:'MyriadPro-Regular'; font-size:12px;">&lt;img src=&quot;assets/images/toy-6.svg&quot;&gt;</text>
<text transform="matrix(1 0 0 1 890.6667 593.3334)" style="font-family:'MyriadPro-Regular'; font-size:12px;">&lt;img src=&quot;assets/images/toy-6.svg&quot;&gt;</text>
<text transform="matrix(1 0 0 1 890.6667 593.3334)" style="font-family:'MyriadPro-Regular'; font-size:12px;">&lt;img src=&quot;assets/images/toy-6.svg&quot;&gt;</text>
<text transform="matrix(1 0 0 1 890.6667 593.3334)" style="font-family:'MyriadPro-Regular'; font-size:12px;">&lt;img src=&quot;assets/images/toy-6.svg&quot;&gt;</text>
<text transform="matrix(1 0 0 1 890.6667 593.3334)" style="font-family:'MyriadPro-Regular'; font-size:12px;">&lt;img src=&quot;assets/images/toy-6.svg&quot;&gt;</text>
<text transform="matrix(1 0 0 1 890.6667 593.3334)" style="font-family:'MyriadPro-Regular'; font-size:12px;">&lt;img src=&quot;assets/images/toy-6.svg&quot;&gt;</text>
<text transform="matrix(1 0 0 1 890.6667 593.3334)" style="font-family:'MyriadPro-Regular'; font-size:12px;">&lt;img src=&quot;assets/images/toy-6.svg&quot;&gt;</text>
<text transform="matrix(1 0 0 1 890.6667 593.3334)" style="font-family:'MyriadPro-Regular'; font-size:12px;">&lt;img src=&quot;assets/images/toy-6.svg&quot;&gt;</text>
<text transform="matrix(1 0 0 1 890.6667 593.3334)" style="font-family:'MyriadPro-Regular'; font-size:12px;">&lt;img src=&quot;assets/images/toy-6.svg&quot;&gt;</text>
<text transform="matrix(1 0 0 1 890.6667 593.3334)" style="font-family:'MyriadPro-Regular'; font-size:12px;">&lt;img src=&quot;assets/images/toy-6.svg&quot;&gt;</text>
<text transform="matrix(1 0 0 1 890.6667 593.3334)" style="font-family:'MyriadPro-Regular'; font-size:12px;">&lt;img src=&quot;assets/images/toy-6.svg&quot;&gt;</text>
<text transform="matrix(1 0 0 1 890.6667 593.3334)" style="font-family:'MyriadPro-Regular'; font-size:12px;">&lt;img src=&quot;assets/images/toy-6.svg&quot;&gt;</text>
<text transform="matrix(1 0 0 1 890.6667 593.3334)" style="font-family:'MyriadPro-Regular'; font-size:12px;">&lt;img src=&quot;assets/images/toy-6.svg&quot;&gt;</text>
<text transform="matrix(1 0 0 1 890.6667 593.3334)" style="font-family:'MyriadPro-Regular'; font-size:12px;">&lt;img src=&quot;assets/images/toy-6.svg&quot;&gt;</text>
<text transform="matrix(1 0 0 1 890.6667 593.3334)" style="font-family:'MyriadPro-Regular'; font-size:12px;">&lt;img src=&quot;assets/images/toy-6.svg&quot;&gt;</text>
<text transform="matrix(1 0 0 1 890.6667 593.3334)" style="font-family:'MyriadPro-Regular'; font-size:12px;">&lt;img src=&quot;assets/images/toy-6.svg&quot;&gt;</text>
<text transform="matrix(1 0 0 1 890.6667 593.3334)" style="font-family:'MyriadPro-Regular'; font-size:12px;">&lt;img src=&quot;assets/images/toy-6.svg&quot;&gt;</text>
<text transform="matrix(1 0 0 1 890.6667 593.3334)" style="font-family:'MyriadPro-Regular'; font-size:12px;">&lt;img src=&quot;assets/images/toy-6.svg&quot;&gt;</text>
<text transform="matrix(1 0 0 1 890.6667 593.3334)" style="font-family:'MyriadPro-Regular'; font-size:12px;">&lt;img src=&quot;assets/images/toy-6.svg&quot;&gt;</text>
<text transform="matrix(1 0 0 1 890.6667 593.3334)" style="font-family:'MyriadPro-Regular'; font-size:12px;">&lt;img src=&quot;assets/images/toy-6.svg&quot;&gt;</text>
<text transform="matrix(1 0 0 1 890.6667 593.3334)" style="font-family:'MyriadPro-Regular'; font-size:12px;">&lt;img src=&quot;assets/images/toy-6.svg&quot;&gt;</text>
<text transform="matrix(1 0 0 1 890.6667 593.3334)" style="font-family:'MyriadPro-Regular'; font-size:12px;">&lt;img src=&quot;assets/images/toy-6.svg&quot;&gt;</text>
<text transform="matrix(1 0 0 1 890.6667 593.3334)" style="font-family:'MyriadPro-Regular'; font-size:12px;">&lt;img src=&quot;assets/images/toy-6.svg&quot;&gt;</text>
<text transform="matrix(1 0 0 1 890.6667 593.3334)" style="font-family:'MyriadPro-Regular'; font-size:12px;">&lt;img src=&quot;assets/images/toy-6.svg&quot;&gt;</text>
<text transform="matrix(1 0 0 1 890.6667 593.3334)" style="font-family:'MyriadPro-Regular'; font-size:12px;">&lt;img src=&quot;assets/images/toy-6.svg&quot;&gt;</text>
<text transform="matrix(1 0 0 1 890.6667 593.3334)" style="font-family:'MyriadPro-Regular'; font-size:12px;">&lt;img src=&quot;assets/images/toy-6.svg&quot;&gt;</text>
<text transform="matrix(1 0 0 1 890.6667 593.3334)" style="font-family:'MyriadPro-Regular'; font-size:12px;">&lt;img src=&quot;assets/images/toy-6.svg&quot;&gt;</text>
<text transform="matrix(1 0 0 1 890.6667 593.3334)" style="font-family:'MyriadPro-Regular'; font-size:12px;">&lt;img src=&quot;assets/images/toy-6.svg&quot;&gt;</text>
<g>
	<line class="st0" x1="213.6" y1="261.9" x2="213.6" y2="261.9"/>
	<polyline class="st0" points="221.5,260.1 221.5,260.1 221.6,260.1 	"/>
	<line class="st0" x1="240.6" y1="255.8" x2="54.7" y2="295.5"/>
	<polyline class="st0" points="54.7,295.5 5,46.8 187.9,5.6 240.6,255.8 	"/>
	<line class="st0" x1="36" y1="201.6" x2="32" y2="182"/>
	<polyline class="st1" points="58.6,140.3 57.6,135.8 170.7,115.9 171.4,118.9 	"/>
	<polyline class="st1" points="67.5,179.6 66.5,175.1 179.5,155.2 180.6,159.7 	"/>
	<polyline class="st1" points="76.7,220.5 75.7,215.9 188.7,196 189.8,200.5 	"/>
	<polyline class="st1" points="165.9,94.7 164.7,89.4 54,119.9 55.1,124.5 	"/>
	<polyline class="st1" points="174.9,134.8 173.9,130.2 63.2,160.7 64.3,165.3 	"/>
	<polyline class="st1" points="184.1,175.6 183.1,171.1 72.4,201.6 73.5,206.1 	"/>
	<circle class="st2" cx="116.1" cy="78.1" r="4.6"/>
	<path class="st3" d="M46,84.4c-4.2,0.9-6.8,5.2-5.8,9.5c1,4.3,5.1,7,9.3,6L164,79l-1.5,0.3c4.2-0.9,8.3,1.8,9.3,6
		c1,4.3-1.6,8.5-5.8,9.5L53.6,125l1.5-0.4l0,0.1c-4.2,0.9-6.8,5.2-5.8,9.5c1,4.3,5.1,7,9.3,6L173,119.3l-1.5,0.3l0,0.1
		c4.2-0.9,8.3,1.8,9.3,6c1,4.3-1.6,8.5-5.8,9.5L62.7,165.3l1.5-0.4l0,0.1c-4.2,0.9-6.8,5.2-5.8,9.5c1,4.3,5.1,7,9.3,6l114.4-20.9
		l-1.5,0.3l0,0.1c4.2-0.9,8.3,1.8,9.3,6c1,4.3-1.6,8.5-5.8,9.5L71.8,205.6l1.5-0.4l0,0.1c-4.2,0.9-6.8,5.2-5.8,9.5
		c1,4.3,5.1,7,9.3,6l114.4-20.9l-1.5,0.3l0,0.1c4.2-0.9,8.3,1.8,9.3,6s-1.6,8.5-5.8,9.5"/>
	<polyline class="st1" points="49.4,99.5 48.4,95 161.5,75.1 162.5,79.6 	"/>
	<line class="st2" x1="92.9" y1="82.6" x2="89.6" y2="83.3"/>
	<line class="st2" x1="109.7" y1="79.6" x2="100.7" y2="81.2"/>
	<line class="st2" x1="99.1" y1="81.5" x2="95.2" y2="82.2"/>
	<line class="st2" x1="87.9" y1="83.6" x2="81.8" y2="84.7"/>
</g>
</svg>
