<?xml version="1.0" encoding="utf-8"?>
<!-- Generator: Adobe Illustrator 22.0.1, SVG Export Plug-In . SVG Version: 6.00 Build 0)  -->
<svg version="1.1" id="Layer_1" xmlns="http://www.w3.org/2000/svg" xmlns:xlink="http://www.w3.org/1999/xlink" x="0px" y="0px"
	 viewBox="0 0 235.4 220.7" style="enable-background:new 0 0 235.4 220.7;" xml:space="preserve">
<style type="text/css">
	.st0{fill:none;stroke:#EE3769;stroke-miterlimit:10;}
	.st1{fill:none;stroke:#5664AE;stroke-miterlimit:10;}
	.st2{fill:none;stroke:#EECCAE;stroke-miterlimit:10;}
	.st3{fill:none;stroke:#F9AE8D;stroke-miterlimit:10;}
	.st4{fill:none;stroke:#EF412D;stroke-miterlimit:10;}
</style>
<path class="st0" d="M14.2,204.6h172L217.9,86c1.7-50.1-18.4-80.2-56.8-80.2S72.6,29.2,50.9,77.7L14.2,204.6z"/>
<path class="st1" d="M112.7,141.1c39.9,4,63.5-30.1,65.1-45.1c1.7-15,0-38.4-21.7-45.1S101,61,89.3,86S79.3,137.8,112.7,141.1z"/>
<path class="st1" d="M106,129.5c39.9,4,63.5-30.1,65.1-45.1s0-38.4-21.7-45.1s-55.1,10-66.8,35.1S72.6,126.1,106,129.5z"/>
<path class="st2" d="M119.8,109.3c16.5,1.7,26.2-12.4,26.9-18.6c0.7-6.2,0-15.9-9-18.6s-22.8,4.1-27.6,14.5
	C105.3,96.9,106,108,119.8,109.3z"/>
<circle class="st3" cx="116.1" cy="67.7" r="5"/>
<path class="st4" d="M101.3,79.5c-2,2.2-4,4.9-5.7,7.9"/>
<path class="st4" d="M91.9,110.1c-0.8-3-1-5.9-0.8-8.8"/>
<path class="st4" d="M95.2,117.9c-0.6-1-1.2-2.1-1.6-3.1"/>
<path class="st4" d="M93.9,90.8c-1,2.3-1.8,4.7-2.3,7.2"/>
<path class="st4" d="M105.2,75.7c-0.6,0.5-1.1,1-1.7,1.6"/>
</svg>
