<svg id="Layer_1" data-name="Layer 1" xmlns="http://www.w3.org/2000/svg" width="417.48" height="441.21" viewBox="0 0 417.48 441.21"><defs><style>.cls-1{fill:none;stroke:#ddc8c4;stroke-miterlimit:10;stroke-width:10px;}.cls-2{font-size:18px;font-family:Lato-Regular, Lato;}.cls-2,.cls-3{fill:#ddc8c4;}</style></defs><title>logo</title><circle class="cls-1" cx="216.54" cy="258.67" r="174"/><text class="cls-2" transform="translate(42.03 204.89) rotate(-70.93)">A</text><text class="cls-2" transform="matrix(0.39, -0.92, 0.92, 0.39, 46.78, 191.52)">L</text><text class="cls-2" transform="translate(51.22 181.19) rotate(-63.28)">E</text><text class="cls-2" transform="translate(56.87 170.14) rotate(-59.54)">S</text><text class="cls-2" transform="matrix(0.56, -0.83, 0.83, 0.56, 62.77, 160.23)">S</text><text class="cls-2" transform="translate(69.31 150.74) rotate(-52.94)">I</text><text class="cls-2" transform="translate(73.81 144.73) rotate(-49.53)">A</text><text class="cls-2" transform="matrix(0.69, -0.72, 0.72, 0.69, 83.18, 134)"> </text><text class="cls-2" transform="translate(86.93 130) rotate(-43.5)">P</text><text class="cls-2" transform="translate(96.43 121.17) rotate(-40.26)">I</text><text class="cls-2" transform="matrix(0.8, -0.6, 0.6, 0.8, 102.16, 116.29)">Z</text><text class="cls-2" transform="translate(112.74 108.41) rotate(-32.81)">Z</text><text class="cls-2" transform="translate(123.35 101.56) rotate(-28.35)">O</text><text class="cls-2" transform="translate(137.73 93.94) rotate(-23.61)">C</text><text class="cls-2" transform="translate(150.85 88.29) rotate(-19.2)">C</text><text class="cls-2" transform="matrix(0.97, -0.25, 0.25, 0.97, 164.31, 83.65)">H</text><text class="cls-2" transform="translate(179.39 79.88) rotate(-10.15)">E</text><text class="cls-2" transform="matrix(0.99, -0.11, 0.11, 0.99, 191.62, 77.74)">R</text><text class="cls-2" transform="translate(205.13 76.45) rotate(-2.71)">I</text><text class="cls-2" transform="translate(212.7 76.15) rotate(-0.64)"> </text><text class="cls-2" transform="translate(218.23 76.11) rotate(1.41)">|</text><text class="cls-2" transform="matrix(1, 0.06, -0.06, 1, 225.67, 76.34)"> </text><text class="cls-2" transform="translate(231.14 76.64) rotate(6.24)">F</text><text class="cls-2" transform="translate(243.21 78) rotate(10.27)">R</text><text class="cls-2" transform="matrix(0.97, 0.26, -0.26, 0.97, 256.13, 80.35)">O</text><text class="cls-2" transform="translate(271.83 84.61) rotate(19.77)">N</text><text class="cls-2" transform="matrix(0.91, 0.41, -0.41, 0.91, 286.4, 89.98)">T</text><text class="cls-2" transform="translate(297.87 95.28) rotate(26.98)"> </text><text class="cls-2" transform="translate(302.77 97.73) rotate(29.78)">E</text><text class="cls-2" transform="translate(313.52 103.9) rotate(34.15)">N</text><text class="cls-2" transform="matrix(0.78, 0.63, -0.63, 0.78, 326.32, 112.68)">D</text><text class="cls-2" transform="matrix(0.74, 0.67, -0.67, 0.74, 338.26, 122.62)"> </text><text class="cls-2" transform="matrix(0.7, 0.72, -0.72, 0.7, 342.37, 126.24)">D</text><text class="cls-2" transform="matrix(0.64, 0.77, -0.77, 0.64, 353.1, 137.41)">E</text><text class="cls-2" transform="matrix(0.58, 0.81, -0.81, 0.58, 361.03, 146.93)">V</text><text class="cls-2" transform="matrix(0.52, 0.85, -0.85, 0.52, 369.24, 158.51)">E</text><text class="cls-2" transform="translate(375.66 169.14) rotate(62.16)">L</text><text class="cls-2" transform="translate(380.6 178.39) rotate(66.2)">O</text><text class="cls-2" transform="matrix(0.33, 0.94, -0.94, 0.33, 387.05, 193.36)">P</text><text class="cls-2" transform="translate(391.25 205.6) rotate(74.67)">E</text><text class="cls-2" transform="translate(394.49 217.59) rotate(78.76)">R</text><path class="cls-3" d="M188.23,129.22a115.86,115.86,0,0,1,20.33,16.33Q228.9,165.88,231.51,183t-10.63,30.34l-74.54,74.54q-8.94,8.94-12.78,15.25t2.31,12.48a16.9,16.9,0,0,0,11.24,4.77,36,36,0,0,0,14.63-2.31c2.46-.82,4-.92,4.62-.31s.41,1.44-.61,2.47a23.32,23.32,0,0,1-6.78,4,29,29,0,0,1-11.71,2.16,42.35,42.35,0,0,1-14.63-2.93q-7.84-2.93-15.86-10.93-12.33-12.33-11.86-22.65a31,31,0,0,1,6-17.71,48.23,48.23,0,0,1-10.63.77,57.85,57.85,0,0,1-13.09-2,65.82,65.82,0,0,1-14.48-5.85A63.67,63.67,0,0,1,58.24,254,72.68,72.68,0,0,1,47,239.65a45.57,45.57,0,0,1-5.85-15.4,31.12,31.12,0,0,1,1.38-15.86A41,41,0,0,1,52.7,193,46.8,46.8,0,0,1,76.26,179.9a61.12,61.12,0,0,1,28.19.77,107.05,107.05,0,0,1,30,13.09,161.83,161.83,0,0,1,29.42,23.56L200.25,181q10.47-10.47,8.62-19.71t-11.4-18.79a57.84,57.84,0,0,0-7.54-6.32,63.07,63.07,0,0,0-7.86-4.77,27.41,27.41,0,0,0-6.77-2.46q-3.09-.61-4.32.61a2.57,2.57,0,0,0-.61,2.47,27,27,0,0,1,.31,4.62,16.48,16.48,0,0,1-1.55,7.39,20.29,20.29,0,0,1-3.69,5.24,14.4,14.4,0,0,1-10.94,4.46q-6.31-.15-11.55-5.39t-4.62-11.7a17,17,0,0,1,4.93-10.79q8.93-8.92,25.26-5.54Q177.45,122.45,188.23,129.22Zm-45.59,77A61.18,61.18,0,0,0,124,197.15a37,37,0,0,0-19.25-.16q-9.87,2.47-20,12.63Q72.1,222.25,69.64,234.57t7.08,21.87a29.29,29.29,0,0,0,8.47,5.39,52.38,52.38,0,0,0,12.17,3.85,45,45,0,0,0,12.17.77c3.79-.3,6.62-1.38,8.47-3.23l42.82-42.82A230.2,230.2,0,0,0,142.64,206.23Z" transform="translate(16.54 48.67)"/><path class="cls-3" d="M350.49,183.64a73.1,73.1,0,0,1,7.84,28.2,63.2,63.2,0,0,1-4.4,27.24,71.33,71.33,0,0,1-16.23,24.2,72.32,72.32,0,0,1-24.49,16.51,65.44,65.44,0,0,1-27,4.68,70,70,0,0,1-27.37-7,92.75,92.75,0,0,1-25.72-18.57l-28.61-28.61-80.61,80.61,23.66,23.66-4.4,4.4-74-74,4.4-4.4,23.66,23.66L273.32,108.13,249.66,84.47l4.41-4.4,76.2,76.2A105,105,0,0,1,350.49,183.64ZM237.56,254.48a38.57,38.57,0,0,0,31.22,11.69q18.3-1.23,39.48-22.42l9.91-9.9q22-22,22.55-39.89t-14.85-33.29L300,134.81,209,225.87Z" transform="translate(16.54 48.67)"/></svg>