<svg id="Layer_1" data-name="Layer 1" xmlns="http://www.w3.org/2000/svg" width="417.11" height="441.11" viewBox="0 0 417.11 441.11"><defs><style>.cls-1,.cls-2{fill:#ddc8c4;}.cls-2{font-size:18px;font-family:Avenir-Light, Avenir;}</style></defs><title>logo</title><path class="cls-1" d="M200,389c-98.7,0-179-80.3-179-179S101.3,31,200,31s179,80.3,179,179S298.7,389,200,389Zm0-348C106.81,41,31,116.81,31,210s75.81,169,169,169,169-75.81,169-169S293.19,41,200,41Z" transform="translate(16.46 48.57)"/><text class="cls-2" transform="matrix(0.33, -0.95, 0.95, 0.33, 41.95, 204.8)">A</text><text class="cls-2" transform="matrix(0.39, -0.92, 0.92, 0.39, 46.74, 191.33)">L</text><text class="cls-2" transform="translate(51.06 181.25) rotate(-63.3)">E</text><text class="cls-2" transform="translate(56.8 170) rotate(-59.46)">S</text><text class="cls-2" transform="translate(62.94 159.72) rotate(-55.71)">S</text><text class="cls-2" transform="translate(69.81 149.86) rotate(-52.77)">I</text><text class="cls-2" transform="translate(73.8 144.52) rotate(-49.47)">A</text><text class="cls-2" transform="translate(83.24 133.74) rotate(-46.16)"> </text><text class="cls-2" transform="translate(87.86 128.91) rotate(-43.15)">P</text><text class="cls-2" transform="translate(96.94 120.56) rotate(-40.15)">I</text><text class="cls-2" transform="translate(102.04 116.24) rotate(-37.19)">Z</text><text class="cls-2" transform="translate(111.62 109.05) rotate(-33.41)">Z</text><text class="cls-2" transform="matrix(0.88, -0.48, 0.48, 0.88, 121.58, 102.46)">O</text><text class="cls-2" transform="translate(136.46 94.41) rotate(-23.97)">C</text><text class="cls-2" transform="matrix(0.94, -0.33, 0.33, 0.94, 149.82, 88.55)">C</text><text class="cls-2" transform="matrix(0.97, -0.26, 0.26, 0.97, 163.62, 83.75)">H</text><text class="cls-2" transform="matrix(0.98, -0.18, 0.18, 0.98, 178.07, 80.04)">E</text><text class="cls-2" transform="matrix(0.99, -0.11, 0.11, 0.99, 190.5, 77.8)">R</text><text class="cls-2" transform="matrix(1, -0.06, 0.06, 1, 203.1, 76.49)">I</text><text class="cls-2" transform="translate(209.82 76.12) rotate(-1.34)"> </text><text class="cls-2" transform="translate(216.56 76.01) rotate(0.69)">|</text><text class="cls-2" transform="matrix(1, 0.05, -0.05, 1, 222.6, 76.11)"> </text><text class="cls-2" transform="translate(229.3 76.41) rotate(5.65)">F</text><text class="cls-2" transform="translate(241.19 77.64) rotate(9.51)">R</text><text class="cls-2" transform="matrix(0.97, 0.24, -0.24, 0.97, 253.62, 79.71)">O</text><text class="cls-2" transform="translate(269.99 83.95) rotate(19.26)">N</text><text class="cls-2" transform="translate(284.99 89.34) rotate(23.66)">T</text><text class="cls-2" transform="translate(296.24 94.41) rotate(26.63)"> </text><text class="cls-2" transform="translate(302.23 97.38) rotate(29.65)">E</text><text class="cls-2" transform="translate(313.19 103.63) rotate(34.12)">N</text><text class="cls-2" transform="translate(326.29 112.62) rotate(39.01)">D</text><text class="cls-2" transform="translate(338.07 122.41) rotate(42.47)"> </text><text class="cls-2" transform="translate(343.05 126.87) rotate(45.94)">D</text><text class="cls-2" transform="translate(353.58 137.93) rotate(50.35)">E</text><text class="cls-2" transform="matrix(0.58, 0.81, -0.81, 0.58, 361.57, 147.69)">V</text><text class="cls-2" transform="translate(368.88 157.99) rotate(58.33)">E</text><text class="cls-2" transform="translate(375.44 168.79) rotate(62.03)">L</text><text class="cls-2" transform="translate(380.61 178.46) rotate(66.36)">O</text><text class="cls-2" transform="matrix(0.33, 0.94, -0.94, 0.33, 387.24, 194.02)">P</text><text class="cls-2" transform="translate(391.22 205.66) rotate(74.76)">E</text><text class="cls-2" transform="translate(394.48 217.87) rotate(78.74)">R</text><path class="cls-1" d="M188.23,129.22a115.86,115.86,0,0,1,20.33,16.33Q228.9,165.88,231.51,183t-10.63,30.34l-74.54,74.54q-8.94,8.94-12.78,15.25t2.31,12.48a16.9,16.9,0,0,0,11.24,4.77,36,36,0,0,0,14.63-2.31c2.46-.82,4-.92,4.62-.31s.41,1.44-.61,2.47a23.32,23.32,0,0,1-6.78,4,29,29,0,0,1-11.71,2.16,42.35,42.35,0,0,1-14.63-2.93q-7.84-2.93-15.86-10.93-12.33-12.33-11.86-22.65a31,31,0,0,1,6-17.71,48.23,48.23,0,0,1-10.63.77,57.85,57.85,0,0,1-13.09-2,65.82,65.82,0,0,1-14.48-5.85A63.67,63.67,0,0,1,58.24,254,72.68,72.68,0,0,1,47,239.65a45.57,45.57,0,0,1-5.85-15.4,31.12,31.12,0,0,1,1.38-15.86A41,41,0,0,1,52.7,193,46.8,46.8,0,0,1,76.26,179.9a61.12,61.12,0,0,1,28.19.77,107.05,107.05,0,0,1,30,13.09,161.83,161.83,0,0,1,29.42,23.56L200.25,181q10.47-10.47,8.62-19.71t-11.4-18.79a57.84,57.84,0,0,0-7.54-6.32,63.07,63.07,0,0,0-7.86-4.77,27.41,27.41,0,0,0-6.77-2.46q-3.09-.61-4.32.61a2.57,2.57,0,0,0-.61,2.47,27,27,0,0,1,.31,4.62,16.48,16.48,0,0,1-1.55,7.39,20.29,20.29,0,0,1-3.69,5.24,14.4,14.4,0,0,1-10.94,4.46q-6.31-.15-11.55-5.39t-4.62-11.7a17,17,0,0,1,4.93-10.79q8.93-8.92,25.26-5.54Q177.45,122.45,188.23,129.22Zm-45.59,77A61.18,61.18,0,0,0,124,197.15a37,37,0,0,0-19.25-.16q-9.87,2.47-20,12.63Q72.1,222.25,69.64,234.57t7.08,21.87a29.29,29.29,0,0,0,8.47,5.39,52.38,52.38,0,0,0,12.17,3.85,45,45,0,0,0,12.17.77c3.79-.3,6.62-1.38,8.47-3.23l42.82-42.82A230.2,230.2,0,0,0,142.64,206.23Z" transform="translate(16.46 48.57)"/><path class="cls-1" d="M350.49,183.64a73.1,73.1,0,0,1,7.84,28.2,63.2,63.2,0,0,1-4.4,27.24,71.33,71.33,0,0,1-16.23,24.2,72.32,72.32,0,0,1-24.49,16.51,65.44,65.44,0,0,1-27,4.68,70,70,0,0,1-27.37-7,92.75,92.75,0,0,1-25.72-18.57l-28.61-28.61-80.61,80.61,23.66,23.66-4.4,4.4-74-74,4.4-4.4,23.66,23.66L273.32,108.13,249.66,84.47l4.41-4.4,76.2,76.2A105,105,0,0,1,350.49,183.64ZM237.56,254.48a38.57,38.57,0,0,0,31.22,11.69q18.3-1.23,39.48-22.42l9.91-9.9q22-22,22.55-39.89t-14.85-33.29L300,134.81,209,225.87Z" transform="translate(16.46 48.57)"/></svg>