<svg id="Layer_1" data-name="Layer 1" xmlns="http://www.w3.org/2000/svg" width="494.69" height="515.2" viewBox="0 0 494.69 515.2"><defs><style>.cls-1,.cls-2{fill:#ddc8c4;}.cls-2{font-size:20.93px;font-family:Lato-Regular, Lato;}</style></defs><title>logo</title><path class="cls-1" d="M231.08,45.41a186.76,186.76,0,0,1,72.67,358.76A186.76,186.76,0,0,1,158.4,60.08a185.48,185.48,0,0,1,72.68-14.67m0-10c-108.65,0-196.72,88.07-196.72,196.72s88.07,196.71,196.72,196.71S427.8,340.77,427.8,232.13,339.72,35.41,231.08,35.41Z" transform="translate(10.86 81.12)"/><path class="cls-1" d="M246.08,224.65,232,238.73l.27.27,9.73-9.73A46.73,46.73,0,0,0,246.08,224.65Z" transform="translate(10.86 81.12)"/><path class="cls-1" d="M367.52,249.87a59.15,59.15,0,0,0,4.12-25.49A68.48,68.48,0,0,0,364.31,198a98.55,98.55,0,0,0-18.93-25.61l-71.31-71.31L270,105.18l22.14,22.14L239.41,180a113.66,113.66,0,0,0-10.28-11.68,105,105,0,0,0-18.37-14.75q-9.75-6.12-17.82-8.07-14.76-3.08-22.82,5a15.28,15.28,0,0,0-4.45,9.74q-.57,5.85,4.17,10.57a15,15,0,0,0,10.44,4.87,13,13,0,0,0,9.88-4,18.1,18.1,0,0,0,3.34-4.74,15,15,0,0,0,1.39-6.67,23.6,23.6,0,0,0-.28-4.18,2.28,2.28,0,0,1,.56-2.22c.74-.75,2-.93,3.9-.57a25.43,25.43,0,0,1,6.12,2.23,57.31,57.31,0,0,1,7.1,4.32,51.74,51.74,0,0,1,6.82,5.7q8.63,8.63,10.3,17a14.19,14.19,0,0,1-1.1,8.59l-40.82,40.82a143.88,143.88,0,0,0-25.31-20A97.09,97.09,0,0,0,135,200a55.36,55.36,0,0,0-25.46-.69,42.46,42.46,0,0,0-21.3,11.83A37,37,0,0,0,79.1,225.1a28,28,0,0,0-1.26,14.33,41.37,41.37,0,0,0,5.29,13.92,65.81,65.81,0,0,0,10.16,12.94,62.67,62.67,0,0,0,8.42,7.13l-.64.65,69.25,69.25,4.12-4.12L166,330.74a33.2,33.2,0,0,0,7.75,1,26.06,26.06,0,0,0,10.58-1.95,20.9,20.9,0,0,0,6.13-3.62c.92-.93,1.11-1.66.55-2.22s-2-.47-4.17.27a32.4,32.4,0,0,1-13.23,2.09A15.27,15.27,0,0,1,163.44,322c-3.72-3.71-4.42-7.48-2.09-11.27s6.17-8.4,11.55-13.79L228,241.86l26.54,26.55a86.81,86.81,0,0,0,24.07,17.37,65.47,65.47,0,0,0,25.62,6.57A61.17,61.17,0,0,0,329.42,288a67.64,67.64,0,0,0,22.91-15.45A66.63,66.63,0,0,0,367.52,249.87Zm-240.2,42.22-11.63-11.64c1.26.45,2.51.83,3.76,1.16a53.08,53.08,0,0,0,11.84,1.81c1.68,0,3.28,0,4.79-.09Zm14.89-14.89a20.88,20.88,0,0,1-2.57.37,41,41,0,0,1-11-.69,48.12,48.12,0,0,1-11-3.48,26.59,26.59,0,0,1-7.66-4.87q-8.64-8.64-6.4-19.77t13.64-22.55q9.18-9.18,18.09-11.41a33.64,33.64,0,0,1,17.4.14,55.73,55.73,0,0,1,16.84,8.21q7.63,5.35,15.05,11.65Zm182.58-23q-19.83,19.83-37,21a36.11,36.11,0,0,1-29.22-11l-26.77-26.77,85.21-85.21,24.2,24.19q14.42,14.43,13.91,31.16T334.06,245Z" transform="translate(10.86 81.12)"/><text class="cls-2" transform="translate(42.21 275.04) rotate(-77.51)">A</text><text class="cls-2" transform="translate(45.58 260.25) rotate(-73.71)">L</text><text class="cls-2" transform="translate(48.86 249.05) rotate(-70.2)">E</text><text class="cls-2" transform="translate(53.28 236.75) rotate(-66.18)">C</text><text class="cls-2" transform="matrix(0.47, -0.88, 0.88, 0.47, 59.43, 222.84)">H</text><text class="cls-2" transform="matrix(0.54, -0.84, 0.84, 0.54, 67.46, 208.18)">E</text><text class="cls-2" transform="matrix(0.59, -0.8, 0.8, 0.59, 74.51, 197.17)">R</text><text class="cls-2" transform="translate(83.09 185.61) rotate(-49.51)">R</text><text class="cls-2" transform="translate(92.45 174.71) rotate(-45.57)">Y</text><text class="cls-2" transform="translate(102.32 164.68) rotate(-41.64)">Y</text><text class="cls-2" transform="matrix(0.78, -0.63, 0.63, 0.78, 112.98, 155.38)"> </text><text class="cls-2" transform="translate(116.93 152.19) rotate(-37.18)">|</text><text class="cls-2" transform="translate(122.77 147.8) rotate(-35.42)"> </text><text class="cls-2" transform="translate(126.84 144.83) rotate(-32.88)">F</text><text class="cls-2" transform="translate(137.56 137.9) rotate(-29.02)">R</text><text class="cls-2" transform="translate(149.68 131.12) rotate(-24.62)">O</text><text class="cls-2" transform="translate(165.65 123.86) rotate(-19.77)">N</text><text class="cls-2" transform="matrix(0.96, -0.27, 0.27, 0.96, 181.42, 118.3)">T</text><text class="cls-2" transform="matrix(0.97, -0.22, 0.22, 0.97, 194.29, 114.84)"> </text><text class="cls-2" transform="translate(199.17 113.65) rotate(-10.4)">E</text><text class="cls-2" transform="translate(212.02 111.26) rotate(-6.21)">N</text><text class="cls-2" transform="translate(228.59 109.49) rotate(-1.55)">D</text><text class="cls-2" transform="translate(245.33 109.22) rotate(1.5)"> </text><text class="cls-2" transform="translate(250.33 109.22) rotate(4.55)">D</text><text class="cls-2" transform="translate(266.91 110.64) rotate(8.73)">E</text><text class="cls-2" transform="translate(279.84 112.62) rotate(12.71)">V</text><text class="cls-2" transform="translate(294.59 116.01) rotate(16.7)">E</text><text class="cls-2" transform="translate(307.1 119.82) rotate(20.21)">L</text><text class="cls-2" transform="translate(317.31 123.47) rotate(24.13)">O</text><text class="cls-2" transform="translate(333.29 130.75) rotate(28.57)">P</text><text class="cls-2" transform="translate(345.3 137.33) rotate(32.37)">E</text><text class="cls-2" transform="matrix(0.81, 0.59, -0.59, 0.81, 356.35, 144.35)">R</text><text class="cls-2" transform="translate(367.92 153.01) rotate(38.98)"> </text><text class="cls-2" transform="matrix(0.76, 0.65, -0.65, 0.76, 371.89, 156.21)">|</text><text class="cls-2" transform="translate(377.37 161.01) rotate(41.65)"> </text><text class="cls-2" transform="matrix(0.71, 0.7, -0.7, 0.71, 381.16, 164.37)">S</text><text class="cls-2" transform="translate(389.68 172.84) rotate(48.32)">E</text><text class="cls-2" transform="translate(398.37 182.6) rotate(52.3)">A</text><text class="cls-2" transform="matrix(0.56, 0.83, -0.83, 0.56, 406.79, 193.52)">T</text><text class="cls-2" transform="translate(414.18 204.51) rotate(59.71)">T</text><text class="cls-2" transform="matrix(0.45, 0.89, -0.89, 0.45, 420.84, 216)">L</text><text class="cls-2" transform="translate(426.1 226.46) rotate(66.78)">E</text><text class="cls-2" transform="translate(431.18 238.58) rotate(69.41)">,</text><text class="cls-2" transform="translate(433.09 243.73) rotate(70.91)"> </text><text class="cls-2" transform="translate(434.96 248.34) rotate(74.76)">W</text><text class="cls-2" transform="translate(440.39 268.82) rotate(79.72)">A</text></svg>