<svg id="Layer_1" data-name="Layer 1" xmlns="http://www.w3.org/2000/svg" width="435.93" height="418.85" viewBox="0 0 435.93 418.85"><defs><style>.cls-1,.cls-10,.cls-11,.cls-2,.cls-3,.cls-4,.cls-5,.cls-6,.cls-7,.cls-8,.cls-9{fill:#ddc8c4;}.cls-10,.cls-11,.cls-2,.cls-3,.cls-4,.cls-5,.cls-6,.cls-7,.cls-8,.cls-9{isolation:isolate;font-family:Lato-Regular, Lato;}.cls-2{font-size:20.93px;}.cls-3{font-size:20.88px;}.cls-4{font-size:20.9px;}.cls-5{font-size:20.81px;}.cls-6{font-size:20.87px;}.cls-7{font-size:20.97px;}.cls-8{font-size:20.93px;}.cls-9{font-size:20.87px;}.cls-10{font-size:20.96px;}.cls-11{font-size:20.87px;}</style></defs><title>logo</title><path class="cls-1" d="M216.8,43.5c103.15,0,186.72,83.71,186.66,186.86a186.77,186.77,0,0,1-114,171.9c-95,40.13-204.58-4.36-244.72-99.37S49.1,98.3,144.12,58.17h0A185.34,185.34,0,0,1,216.8,43.5m0-10c-108.65,0-196.72,88.07-196.72,196.72S108.15,426.93,216.8,426.93s196.72-88.07,196.72-196.71S325.44,33.5,216.8,33.5Z" transform="translate(0.47 -8.07)"/><path class="cls-1" d="M231.8,222.74l-14.08,14.08.27.27,9.73-9.73A48.3,48.3,0,0,0,231.8,222.74Z" transform="translate(0.47 -8.07)"/><path class="cls-1" d="M353.24,248a59.08,59.08,0,0,0,4.12-25.49A68.32,68.32,0,0,0,350,196.09a98.36,98.36,0,0,0-18.93-25.61L259.79,99.17l-4.07,4.1,22.14,22.14-52.73,52.68a111.83,111.83,0,0,0-10.28-11.68,104.8,104.8,0,0,0-18.37-14.75q-9.75-6.12-17.82-8.07-14.76-3.09-22.82,5a15.26,15.26,0,0,0-4.45,9.74q-.57,5.85,4.17,10.57A15,15,0,0,0,166,173.77a13,13,0,0,0,9.88-4,18.07,18.07,0,0,0,3.34-4.74,14.92,14.92,0,0,0,1.39-6.67,23.38,23.38,0,0,0-.28-4.18,2.29,2.29,0,0,1,.56-2.22c.74-.75,2-.93,3.9-.57a24.67,24.67,0,0,1,6.12,2.23,56.49,56.49,0,0,1,7.1,4.32,50.88,50.88,0,0,1,6.82,5.7q8.63,8.63,10.3,17a14.2,14.2,0,0,1-1.1,8.59l-40.82,40.82a143.28,143.28,0,0,0-25.31-20,97,97,0,0,0-27.18-12,55.19,55.19,0,0,0-25.46-.69A42.4,42.4,0,0,0,74,209.23a37,37,0,0,0-9.14,14,28.05,28.05,0,0,0-1.26,14.33,41.53,41.53,0,0,0,5.29,13.92A65.9,65.9,0,0,0,79,264.38a63,63,0,0,0,8.42,7.13l-.64.65L156,341.41l4.12-4.12-8.44-8.46a33.81,33.81,0,0,0,7.75,1,26.06,26.06,0,0,0,10.58-1.95,21.07,21.07,0,0,0,6.13-3.62c.92-.93,1.11-1.66.55-2.22s-2-.47-4.17.27a32.43,32.43,0,0,1-13.23,2.09,15.3,15.3,0,0,1-10.17-4.31c-3.72-3.71-4.42-7.48-2.09-11.27s6.17-8.4,11.55-13.79L213.72,240l26.54,26.55a87,87,0,0,0,24.07,17.37A65.59,65.59,0,0,0,290,290.44a61.31,61.31,0,0,0,25.19-4.35,67.65,67.65,0,0,0,22.91-15.45A66.55,66.55,0,0,0,353.24,248ZM113,290.18l-11.63-11.64c1.26.45,2.51.83,3.76,1.16A53.93,53.93,0,0,0,117,281.51c1.68,0,3.28,0,4.79-.09Zm14.89-14.89a22.4,22.4,0,0,1-2.57.37,41.43,41.43,0,0,1-11-.69,48.88,48.88,0,0,1-11-3.48,26.88,26.88,0,0,1-7.66-4.87q-8.64-8.64-6.4-19.77t13.64-22.55q9.18-9.18,18.09-11.41a33.56,33.56,0,0,1,17.4.14,55.47,55.47,0,0,1,16.84,8.21q7.64,5.34,15,11.65Zm182.58-23q-19.83,19.83-37,21a36.14,36.14,0,0,1-29.22-11l-26.77-26.77,85.21-85.21,24.2,24.19q14.42,14.43,13.91,31.16t-21.06,37.43Z" transform="translate(0.47 -8.07)"/><text class="cls-2" transform="matrix(0.22, -0.98, 0.98, 0.22, 17.54, 183.93)">A</text><text class="cls-2" transform="translate(20.91 169.14) rotate(-73.71)">L</text><text class="cls-2" transform="translate(24.19 157.94) rotate(-70.2)">E</text><text class="cls-2" transform="translate(28.61 145.64) rotate(-66.18)">C</text><text class="cls-3" transform="translate(34.76 131.73) rotate(-61.89)">H</text><text class="cls-4" transform="matrix(0.54, -0.84, 0.84, 0.54, 42.79, 117.07)">E</text><text class="cls-5" transform="translate(49.84 106.06) rotate(-53.59)">R</text><text class="cls-2" transform="translate(58.42 94.5) rotate(-49.51)">R</text><text class="cls-2" transform="translate(67.78 83.6) rotate(-45.57)">Y</text><text class="cls-2" transform="translate(77.65 73.57) rotate(-41.64)">Y</text><text class="cls-2" transform="translate(92.26 61.08) rotate(-37.18)">|</text><text class="cls-2" transform="translate(102.17 53.72) rotate(-32.88)">F</text><text class="cls-2" transform="matrix(0.87, -0.49, 0.49, 0.87, 112.89, 46.79)">R</text><text class="cls-2" transform="matrix(0.91, -0.42, 0.42, 0.91, 125.01, 40.01)">O</text><text class="cls-2" transform="translate(140.98 32.75) rotate(-19.77)">N</text><text class="cls-6" transform="matrix(0.96, -0.27, 0.27, 0.96, 156.75, 27.19)">T</text><text class="cls-2" transform="translate(174.5 22.54) rotate(-10.4)">E</text><text class="cls-2" transform="translate(187.35 20.15) rotate(-6.21)">N</text><text class="cls-2" transform="translate(203.92 18.38) rotate(-1.55)">D</text><text class="cls-2" transform="translate(225.66 18.11) rotate(4.55)">D</text><text class="cls-2" transform="matrix(0.99, 0.15, -0.15, 0.99, 242.24, 19.53)">E</text><text class="cls-2" transform="translate(255.17 21.51) rotate(12.71)">V</text><text class="cls-2" transform="translate(269.92 24.9) rotate(16.7)">E</text><text class="cls-2" transform="translate(282.43 28.71) rotate(20.21)">L</text><text class="cls-2" transform="translate(292.64 32.36) rotate(24.13)">O</text><text class="cls-2" transform="matrix(0.88, 0.48, -0.48, 0.88, 308.62, 39.64)">P</text><text class="cls-2" transform="matrix(0.84, 0.54, -0.54, 0.84, 320.63, 46.22)">E</text><text class="cls-7" transform="translate(331.68 53.24) rotate(36.07)">R</text><text class="cls-8" transform="translate(347.22 65.1) rotate(40.54)">|</text><text class="cls-9" transform="matrix(0.71, 0.7, -0.7, 0.71, 356.49, 73.26)">S</text><text class="cls-2" transform="translate(365.01 81.73) rotate(48.32)">E</text><text class="cls-2" transform="matrix(0.61, 0.79, -0.79, 0.61, 373.7, 91.49)">A</text><text class="cls-10" transform="translate(382.12 102.41) rotate(55.99)">T</text><text class="cls-2" transform="matrix(0.5, 0.86, -0.86, 0.5, 389.51, 113.4)">T</text><text class="cls-11" transform="matrix(0.45, 0.89, -0.89, 0.45, 396.17, 124.89)">L</text><text class="cls-2" transform="matrix(0.39, 0.92, -0.92, 0.39, 401.43, 135.35)">E</text><text class="cls-2" transform="matrix(0.35, 0.94, -0.94, 0.35, 406.51, 147.47)">,</text><text class="cls-2" transform="translate(410.29 157.23) rotate(74.76)">W</text><text class="cls-2" transform="translate(415.72 177.71) rotate(79.72)">A</text></svg>